<svg xmlns="http://www.w3.org/2000/svg" xmlns:xlink="http://www.w3.org/1999/xlink" id="Layer_1" x="0" y="0" enable-background="new 0 0 704 140" version="1.1" viewBox="0 0 704 140" xml:space="preserve"><style type="text/css">.st0{fill:#555d63}.st1{clip-path:url(#SVGID_2_)}.st2{clip-path:url(#SVGID_4_);fill:#555d63}</style><path d="M555.5,49.2c-0.4-1.1-0.9-2.2-1.4-3.2l1.2-9h25.3l1.7,11.4h0.9c4.7-7.3,11.1-12.9,20.2-12.9	c3.3,0,9.9,0.6,12.5,1.3v26.1l-17.2-0.6l-1.4-7.6c-0.3-1.3-0.7-1.6-1.9-1.6c-3.7,0-8.2,3.1-10.3,5V96c0,2.3,0.1,2.7,2.3,2.9	l14.2,1.1v11.5h-46.9V100l6.5-0.9c2-0.3,2.3-0.7,2.3-2.9V54.3c0-1.6-0.4-2.6-1.9-3L555.5,49.2z" class="st0"/><path d="M438.2,70.4l-12.3,41.1h-22.7L392,63.6h-0.9l-11.3,47.9H354l-18.1-59.3c-0.6-1.7-1.3-2-3-2.4l-1.4-0.3v10.9	l-15.4-1l-1.4-7.4c-0.1-1.1-0.4-1.7-1.4-2c-1.9-0.6-5.3-1.1-9.2-1.1c-7.2,0-11.2,2.7-11.2,7.3c0,5.9,7.9,7.2,16.6,9.2	c11.3,2.6,24.1,6.6,24.1,23.3c0,17.5-14.2,24.6-32.4,24.6c-13.1,0-25.8-3.4-28.4-5.2V87.4l15.4,1.1l1.4,8.2c0.1,1.3,0.4,1.9,1.7,2.1	c1.7,0.6,5.6,1.4,11.1,1.4c7.6,0,11.9-2.1,11.9-7.4c0-5.7-5.7-7.4-13.1-8.7c-12.1-2.1-27.8-4.7-27.8-23.5	c0-17.7,15.2-25.1,31.7-25.1c9.4,0,18.5,1.8,23.7,3.3l0.4-1.8h36.3v11.9l-8,0.9L369,90h1l12.8-51.1h21.7L416.8,90h0.9l10.8-40.2	l-8.2-0.9L422,37h27.4C442.6,46.5,438.5,58,438.2,70.4z" class="st0"/><path d="M688.6,99.2c-2.1-0.2-2.2-0.5-2.3-2.7v-93h-28.8l-1.6,11.6l7.9,2.7c1.3,0.5,1.9,1.5,1.9,2.9v21.8	c-5.4-4-11.9-6.9-20.2-6.9c-15.9,0-30.4,10.8-30.4,39.6c0,27.4,10.9,38.1,27.8,38.1c10.4,0,17.5-4,23.5-9.9l1,0.1l1.4,8h26.7v-11.3	L688.6,99.2z M650.7,96.4c-9,0-13.1-7.7-13.1-21.6c0-12.7,4.2-22.6,14.8-22.6c4.2,0,8.8,1.9,12.3,4.3v33.7h0.1	C660.9,93.5,655.6,96.4,650.7,96.4z" class="st0"/><path d="M247.7,65.3c-8.7-2-16.6-3.3-16.6-9c0-4.6,4-7.3,11.2-7.3c3.9,0,7.3,0.5,9.2,1.1c1,0.3,1.3,0.9,1.4,2l1.4,7.4	l15.4,1V39.7c-4-1.6-15.1-4.2-26.4-4.2c-16.5,0-31.7,7.4-31.7,25.1c0,18.8,15.7,21.4,27.8,23.5c7.4,1.3,13.1,3,13.1,8.7	c0,5.3-4.3,7.4-11.9,7.4c-5.5,0-9.4-0.8-11.1-1.4c-1.3-0.2-1.6-0.8-1.7-2.1l-1.4-8.2L211,87.4v12.8l-5.8-1c-2.2-0.3-2.3-0.6-2.3-2.9	V61.5c0-20-8.8-25.9-30.6-25.9c-13.2,0-30.9,2.7-30.9,22l20.2,1.7c0-8.6,3.6-9.6,10.5-9.6c8.9,0,9.6,4.6,9.6,11.3v8l-16.5,1.1	c-17.9,1.1-26.8,7.7-26.8,22c0,8.9,2.9,21.2,21,21.2c11.5,0,18.6-4.3,24.1-9.6l0.7,0.1l1.4,7.7H212v-2.9c4.1,1.8,15.6,4.6,27.4,4.6	c18.2,0,32.4-7.1,32.4-24.6C271.8,71.9,259,67.9,247.7,65.3z M181.8,92.7c-3.3,2.4-8.2,5.2-13.1,5.2c-4.7,0-8.2-2.1-8.2-7.9	c0-5.7,3-7.9,11.5-8.4l9.8-0.7V92.7z" class="st0"/><path d="M101.4,73.3c24.2,0,39.3-10,39.4-34.9c0-16.5-8-30.5-34.6-30.5H57.5v11.4l9,1c2,0.2,2.3,0.8,2.3,2.9v73.1	c0,2.2-0.3,2.6-2.3,2.9l-9,1v11.3h56.2v-11.3l-20.5-1.1c-2.2-0.3-2.3-0.6-2.3-2.9V73.3H101.4z M90.9,23.5h8.5	c10.2,0,18.7,2.4,18.7,16.2C118,55.9,107.5,58,98.1,58h-7.2V23.5z" class="st0"/><path d="M43.3,23.1v73.3c0,2.3,0.1,2.7,2.3,2.9l11.8,1v11.3H7v-11.3l12.3-1c2-0.1,2.3-0.7,2.3-2.9V46.9	c0-2.1-1.5-1.7-12.3,1.9l-4-11.7l24.7-14H43.3z" class="st0"/><g><g><defs><path id="SVGID_1_" d="M491.1,61.8V47.5c0-1.6,1.3-2.9,2.9-2.9h10c1.6,0,2.9,1.3,2.9,2.9v26c0,0.4-0.2,0.7-0.4,1L504,77 c-0.6,0.6-0.6,1.5,0,2l2.5,2.5c0.3,0.3,0.4,0.6,0.4,1v14.2c0,1.6-1.3,2.9-2.9,2.9h-10c-1.6,0-2.9-1.3-2.9-2.9v-26 c0-0.4,0.2-0.7,0.4-1l2.5-2.5c0.6-0.6,0.6-1.5,0-2l-2.5-2.5C491.2,62.5,491.1,62.1,491.1,61.8z M536.2,72.2 c0-20.6-16.7-37.3-37.3-37.3s-37.3,16.7-37.3,37.3s16.7,37.3,37.3,37.3S536.2,92.7,536.2,72.2z M548,72.2c0,27.1-22,49-49,49 c-27.1,0-49-22-49-49c0-27.1,22-49,49-49C526,23.1,548,45.1,548,72.2z M440.1,72.2c0,32.5,26.3,58.8,58.8,58.8 s58.8-26.3,58.8-58.8s-26.3-58.8-58.8-58.8S440.1,39.7,440.1,72.2z M436.2,72.2c0-34.7,28.1-62.8,62.8-62.8s62.8,28.1,62.8,62.8 S533.7,135,499,135S436.2,106.8,436.2,72.2z"/></defs><clipPath id="SVGID_2_"><use overflow="visible" xlink:href="#SVGID_1_"/></clipPath><g class="st1"><g><defs><rect id="SVGID_3_" width="125.9" height="125.9" x="436.2" y="9.4"/></defs><clipPath id="SVGID_4_"><use overflow="visible" xlink:href="#SVGID_3_"/></clipPath><rect width="145.2" height="145.2" x="426.3" y="-.5" class="st2"/></g></g></g></g></svg>