<svg xmlns="http://www.w3.org/2000/svg" width="959.769" height="348.224" viewBox="0 0 719.827 261.168"><g fill-rule="evenodd"><path fill="#000222" d="m148.25 101.355469c-4.808594-4.832031-14.453125-10.9375-14.453125-10.9375s-1.917969-11.238281-3.214844-15.398438c8.671875-8.375 9.96875-9.644531 18.316407-17.667968.648437 16.046875.324218 24.394531-.648438 44.003906"/><path fill="#000222" d="m155.003906 135.070313c-5.78125 1.59375-6.429687 1.917968-12.210937 3.535156-6.105469-3.535156-11.5625-5.457031-16.695313-4.832031.648438-3.1875 1.59375-5.457032 2.566407-8.347657 10.914062-1.59375 18.9375 4.1875 26.339843 9.644532"/><path fill="#000222" d="m243.632813 130.585938c0 29.972656-11.910157 58.726562-33.089844 79.933593-6.078125 6.078125-12.757813 11.386719-19.933594 15.871094 0 0-.023437.027344-.050781.027344l-38.769531-48.316406 32.117187 3.539062s15.425781 1.59375 18.9375 0c3.214844-1.269531 20.558594-25.691406 20.558594-25.691406s-49.785156-31.46875-66.804688-48.8125c1.945313-29.230469-2.242187-68.097656-2.242187-67.777344-12.535156 12.511719-14.128906 14.453125-26.664063 26.015625-5.457031-17.664062-8.019531-23.769531-13.476562-41.4375-16.398438 13.480469-28.90625 36.304688-37.902344 62.964844-1.96875 2.167969-3.859375 4.460937-5.730469 6.902344-1.21875 1.621093-2.441406 3.265625-3.613281 4.960937-2.417969 3.4375-4.734375 7.050781-6.949219 10.835938-1.570312 2.667968-3.117187 5.410156-4.613281 8.199218-10.4375 19.609375-19.011719 42.085938-26.4375 62.320313-.046875-.074219-.097656-.175781-.121094-.25-7.378906-15.226563-11.316406-32.042969-11.316406-49.285156 0-30.003907 11.914063-58.757813 33.117188-79.960938 21.203125-21.207031 49.960937-33.117187 79.9375-33.117187 30 0 58.753906 11.910156 79.957031 33.117187 21.179687 21.203125 33.089844 49.957031 33.089844 79.960938"/><path fill="#d10" d="m148.25 101.355469c-4.808594-4.832031-14.453125-10.9375-14.453125-10.9375s-1.917969-11.238281-3.214844-15.398438c8.671875-8.375 9.96875-9.644531 18.316407-17.667968.648437 16.046875.324218 24.394531-.648438 44.003906"/><path fill="#d10" d="m155.003906 135.070313c-5.78125 1.59375-6.429687 1.917968-12.210937 3.535156-6.105469-3.535156-11.5625-5.457031-16.695313-4.832031.648438-3.1875 1.59375-5.457032 2.566407-8.347657 10.914062-1.59375 18.9375 4.1875 26.339843 9.644532"/><path fill="#d10" d="m243.632813 130.585938c0 29.972656-11.910157 58.726562-33.089844 79.933593-6.078125 6.078125-12.757813 11.386719-19.933594 15.871094 0 0-.023437.027344-.050781.027344l-38.769531-48.316406 32.117187 3.539062s15.425781 1.59375 18.9375 0c3.214844-1.269531 20.558594-25.691406 20.558594-25.691406s-49.785156-31.46875-66.804688-48.8125c1.945313-29.230469-2.242187-68.097656-2.242187-67.777344-12.535156 12.511719-14.128906 14.453125-26.664063 26.015625-5.457031-17.664062-8.019531-23.769531-13.476562-41.4375-16.398438 13.480469-28.90625 36.304688-37.902344 62.964844-1.96875 2.167969-3.859375 4.460937-5.730469 6.902344-1.21875 1.621093-2.441406 3.265625-3.613281 4.960937-2.417969 3.4375-4.734375 7.050781-6.949219 10.835938-1.570312 2.667968-3.117187 5.410156-4.613281 8.199218-10.4375 19.609375-19.011719 42.085938-26.4375 62.320313-.046875-.074219-.097656-.175781-.121094-.25-7.378906-15.226563-11.316406-32.042969-11.316406-49.285156 0-30.003907 11.914063-58.757813 33.117188-79.960938 21.203125-21.207031 49.960937-33.117187 79.9375-33.117187 30 0 58.753906 11.910156 79.957031 33.117187 21.179687 21.203125 33.089844 49.957031 33.089844 79.960938"/><path fill="#fff" d="m148.25 101.355469c-4.808594-4.832031-14.453125-10.9375-14.453125-10.9375s-1.917969-11.238281-3.214844-15.398438c8.671875-8.375 9.96875-9.644531 18.316407-17.667968.648437 16.046875.324218 24.394531-.648438 44.003906"/><path fill="#fff" d="m155.003906 135.070313c-5.78125 1.59375-6.429687 1.917968-12.210937 3.535156-6.105469-3.535156-11.5625-5.457031-16.695313-4.832031.648438-3.1875 1.59375-5.457032 2.566407-8.347657 10.914062-1.59375 18.9375 4.1875 26.339843 9.644532"/><path d="m155.003906 135.070313c-5.78125 1.59375-6.429687 1.917968-12.210937 3.535156-6.105469-3.535156-11.5625-5.457031-16.695313-4.832031.648438-3.1875 1.59375-5.457032 2.566407-8.347657 10.914062-1.59375 18.9375 4.1875 26.339843 9.644532"/><path fill="#000222" d="m151.789063 178.101563 38.773437 48.316406c.023438 0 .046875-.027344.046875-.027344zm-122.945313 1.769531c.027344.074219.078125.171875.125.25 7.425781-20.234375 16-42.710938 26.4375-62.320313-10.511719 19.535157-19.160156 41.9375-26.5625 62.070313"/><path d="m210.542969 210.519531c-6.078125 6.078125-12.757813 11.386719-19.933594 15.871094 0 0-.023437.027344-.050781.027344l-38.769531-48.316406 32.117187 3.539062s15.425781 1.59375 18.9375 0c3.214844-1.269531 20.558594-25.691406 20.558594-25.691406s-49.785156-31.46875-66.804688-48.8125c1.941407-29.230469-2.242187-68.097656-2.242187-67.777344-12.535156 12.511719-14.128906 14.453125-26.660156 26.015625-5.457032-17.664062-8.027344-23.769531-13.480469-41.4375-16.398438 13.480469-28.90625 36.304688-37.902344 62.964844-1.96875 2.167969-3.859375 4.460937-5.730469 6.902344-1.21875 1.621093-2.441406 3.265625-3.613281 4.960937-2.414062 3.4375-4.734375 7.050781-6.949219 10.835938-1.570312 2.667968-3.117187 5.410156-4.613281 8.199218-.644531 1.222657-1.292969 2.46875-1.941406 3.714844-9.570313 18.6875-17.542969 39.640625-24.492188 58.605469-.050781-.074219-.101562-.175781-.125-.25-7.378906-15.226563-11.316406-32.042969-11.316406-49.285156 0-30.003907 11.914063-58.757813 33.117188-79.960938 21.207031-21.207031 49.960937-33.117187 79.933593-33.117187 30.003907 0 58.757813 11.910156 79.960938 33.117187 21.179687 21.203125 33.089844 49.957031 33.089844 79.960938 0 29.972656-11.910157 58.726562-33.089844 79.933593m-79.960938-135.5c8.671875-8.375 9.96875-9.644531 18.316407-17.667968.648437 16.046875.324218 24.394531-.648438 44.003906-4.808594-4.832031-14.453125-10.9375-14.453125-10.9375s-1.917969-11.238281-3.214844-15.398438m40.144532 161.863282c-69.273438 25.042968-119.332032-21.054688-130.019532-37.175782.050782-.152343.074219-.277343.097657-.425781 9.621093-40.664062 21.480468-89.328125 40.640625-103.707031 9.96875-17.367188 12.859375-43.054688 30.824218-56.535156 4.511719 13.480468 11.585938 41.4375 16.394532 54.917968 21.207031 21.203125 53.324218 47.542969 74.828125 58.457032 2.242187 1.292968 5.132812 10.289062 5.132812 10.289062l-8.671875 10.914063-92.492187-9.320313c-2.070313-.171875-4.136719-.25-6.203125-.25-5.933594 0-12.011719.675781-19.164063 1.84375 4.484375-11.238281 14.128906-20.230469 14.128906-20.230469s-8.996093-5.457031-15.746093-6.40625c1.941406-4.507812 7.074218-10.289062 8.371093-11.882812-2.589843.945312-21.203125 9.292969-23.148437 16.367187 8.996094 2.246094 15.421875 5.136719 15.421875 5.136719s-9.941406 9.964844-11.882813 27.308594c0 0 29.550782-4.511719 51.726563-1.621094.625.324219.949219.324219 1.273437.324219l11.558594.324219 36.730469 61.148437.296875.472656c-.046875.023438-.074219.050782-.097656.050782m48.664062-195.105469c-23.546875-23.546875-55.492187-36.777344-88.808594-36.777344-33.289062 0-65.230468 13.230469-88.804687 36.777344-23.546875 23.546875-36.777344 55.492187-36.777344 88.808594 0 33.289062 13.230469 65.230468 36.777344 88.777343 23.574219 23.574219 55.515625 36.804688 88.804687 36.804688 33.316407 0 65.261719-13.230469 88.808594-36.804688 23.546875-23.546875 36.777344-55.488281 36.777344-88.777343 0-33.316407-13.230469-65.261719-36.777344-88.808594"/><path fill="#fff" d="m128.664063 125.425781c10.914062-1.59375 18.9375 4.1875 26.339843 9.644532-5.78125 1.59375-6.429687 1.917968-12.210937 3.535156-6.105469-3.535156-11.5625-5.457031-16.695313-4.832031.648438-3.1875 1.59375-5.457032 2.566407-8.347657m-46.570313 40.464844c7.152344-1.167969 13.230469-1.84375 19.164063-1.84375 2.066406 0 4.132812.078125 6.203125.25l92.492187 9.320313 8.671875-10.914063s-2.890625-8.996094-5.132812-10.292969c-21.503907-10.910156-53.621094-37.25-74.828125-58.453125-4.808594-13.480468-11.882813-41.4375-16.394532-54.917968-17.964843 13.480468-20.855468 39.167968-30.824218 56.535156-19.160157 14.378906-31.019532 63.042969-40.640625 103.707031-.023438.148438-.046875.273438-.097657.425781 10.6875 16.121094 60.75 62.21875 130.019532 37.175782.023437 0 .046875-.027344.097656-.050782l-.296875-.472656-36.730469-61.148437-11.5625-.324219c-.320312 0-.644531 0-1.269531-.324219-22.175781-2.890625-51.726563 1.621094-51.726563 1.621094 1.941407-17.34375 11.882813-27.308594 11.882813-27.308594s-6.425781-2.890625-15.421875-5.132812c1.941406-7.078125 20.554687-15.425782 23.148437-16.371094-1.296875 1.59375-6.429687 7.375-8.371093 11.882812 6.75.949219 15.746093 6.40625 15.746093 6.40625s-9.644531 8.996094-14.128906 20.230469"/></g><path d="m317.058594 26.359375h14.589844l13.238281 61.597656 10.210937-61.597656h12.402344l-14.691406 79.105469h-14.28125l-14.171875-65.140625-14.175781 65.140625h-14.277344l-14.699219-79.105469h12.40625l10.214844 61.597656zm0 0"/><path d="m370.519531 78.46875c0-16.046875 4.585938-27.304687 23.140625-27.304687 18.550782 0 23.132813 11.257812 23.132813 27.304687 0 16.054688-4.582031 27.308594-23.132813 27.308594-18.554687 0-23.140625-11.253906-23.140625-27.308594m34.5 0c0-11.148437-1.460937-17.507812-11.359375-17.507812-9.902343 0-11.363281 6.359375-11.363281 17.507812 0 11.152344 1.460938 17.511719 11.363281 17.511719 9.898438 0 11.359375-6.359375 11.359375-17.511719"/><path d="m425.753906 91.707031v-65.347656h11.671875v65.242188c0 2.921875 1.042969 3.960937 4.378907 3.960937v9.484375s-1.042969.210938-2.292969.210938c-9.484375 0-13.757813-4.585938-13.757813-13.550782"/><path d="m485.574219 36.261719c-1.875-.625-4.0625-1.042969-7.710938-1.042969-5.210937 0-9.382812 1.980469-9.382812 7.921875v9.277344h14.699219v9.898437h-14.699219v42.210938h-11.671875v-42.210938h-9.484375v-7.191406l9.484375-2.707031v-10.320313c0-11.152343 6.253906-16.988281 20.21875-16.988281 3.441406 0 6.566406.519531 8.546875 1.25zm0 0"/><path d="m519.964844 61.796875c-1.25-.417969-3.335938-.625-5.730469-.625-6.152344 0-10.738281 1.457031-13.339844 3.125v40.230469h-11.675781v-52.113281h6.878906l1.878907 4.167968c3.855468-3.125 9.691406-5.417968 16.464843-5.417968 2.1875 0 4.066407.3125 5.523438.625zm0 0"/><path d="m543.933594 61.167969c-6.773438 0-12.296875 1.566406-16.257813 3.128906v-10.109375c4.066407-1.773437 10.941407-3.023437 17.09375-3.023437 17.09375 0 21.054688 7.503906 21.054688 18.550781v34.8125h-6.882813l-1.875-4.167969c-4.167968 3.4375-10.003906 5.417969-15.738281 5.417969-13.441406 0-17.925781-8.335938-17.925781-16.675781 0-11.257813 7.296875-16.050782 19.074219-16.988282l11.671875-.9375v-2.605468c0-5.316407-2.5-7.402344-10.214844-7.402344m-.726563 19.285156c-5.214843.625-8.234375 2.601563-8.234375 8.023438 0 3.960937 1.667969 7.710937 8.023438 7.710937 4.691406 0 7.921875-1.355469 11.152344-3.4375v-13.550781zm0 0"/><path d="m637.003906 67.734375c0-4.898437-2.816406-6.667969-7.402343-6.667969-5.105469 0-8.542969 1.5625-11.253907 3.230469.207032 1.875.3125 3.648438.3125 5.730469v34.5h-11.675781v-36.792969c0-4.898437-2.707031-6.667969-7.394531-6.667969-4.796875 0-8.238281 1.457032-10.945313 3.023438v40.4375h-11.675781v-52.113281h6.878906l1.875 4.167968c4.378907-3.4375 10.632813-5.417968 15.738282-5.417968 6.984375 0 11.152343 1.980468 13.339843 5.210937 4.691407-3.335937 10.945313-5.210937 16.679688-5.210937 12.296875 0 17.195312 6.671875 17.195312 16.570312v36.792969h-11.671875zm0 0"/><path d="m292.839844 198.019531h33.976562v10.734375h-45.648437v-78.167968h11.671875zm0 0"/><path d="m349.636719 165.398438c-6.773438 0-12.296875 1.5625-16.257813 3.125v-10.109375c4.066407-1.769532 10.941407-3.023438 17.09375-3.023438 17.09375 0 21.054688 7.503906 21.054688 18.550781v34.8125h-6.882813l-1.875-4.167968c-4.167968 3.4375-10.003906 5.417968-15.738281 5.417968-13.445312 0-17.925781-8.335937-17.925781-16.675781 0-11.257812 7.296875-16.050781 19.074219-16.988281l11.671875-.9375v-2.605469c0-5.316406-2.5-7.398437-10.214844-7.398437m-.726563 19.28125c-5.214843.625-8.234375 2.601562-8.234375 8.023437 0 3.960938 1.667969 7.710938 8.023438 7.710938 4.691406 0 7.921875-1.351563 11.152344-3.4375v-13.550782zm0 0"/><path d="m414.566406 208.753906v-35.75c0-5.3125-2.710937-7.710937-8.234375-7.710937-5.417968 0-9.171875 1.457031-11.984375 3.023437v40.4375h-11.675781v-52.113281h6.878906l1.875 4.167969c5.316407-3.644531 11.257813-5.417969 16.886719-5.417969 13.234375 0 17.925781 6.566406 17.925781 16.570313v36.792968zm0 0"/><path d="m457.082031 194.996094c-2.1875 0-4.273437-.105469-6.042968-.417969-.835938.835938-1.460938 1.980469-1.460938 3.023438 0 1.773437.9375 2.710937 3.128906 3.023437l18.863282 2.292969c10.320312 1.25 13.964843 5.9375 13.964843 14.589844 0 13.445312-14.171875 18.550781-29.285156 18.550781-13.964844 0-24.078125-4.480469-24.078125-15.214844 0-7.089844 5.316406-11.257812 10.839844-12.921875v-.105469c-2.601563-1.460937-4.0625-4.378906-4.0625-7.191406 0-3.859375 2.292969-6.566406 4.6875-8.445312-5.9375-3.332032-8.335938-9.378907-8.335938-16.984375 0-11.882813 5.835938-19.804688 21.78125-19.804688 3.753907 0 6.878907.417969 9.589844 1.25h18.03125v7.402344l-7.402344 2.082031c1.042969 2.710938 1.566407 5.730469 1.566407 9.070313 0 11.878906-5.835938 19.800781-21.785157 19.800781m-3.648437 15.320312c-5.3125.9375-10.105469 3.335938-10.105469 8.339844 0 5.835938 4.167969 8.128906 13.753906 8.128906 9.175782 0 17.199219-2.710937 17.199219-8.964843 0-3.542969-1.773437-5.105469-6.046875-5.628907zm3.648437-24.59375c8.753907 0 10.738282-4.589843 10.738282-10.527343 0-5.941407-1.984375-10.527344-10.738282-10.527344-8.753906 0-10.734375 4.585937-10.734375 10.527344 0 5.9375 1.980469 10.527343 10.734375 10.527343"/><path d="m503.148438 156.640625v35.75c0 5.316406 2.707031 7.710938 8.230468 7.710938 5.421875 0 9.171875-1.457032 11.984375-3.019532v-40.441406h11.675782v52.113281h-6.878907l-1.875-4.167968c-5.316406 3.644531-11.257812 5.417968-16.886718 5.417968-13.234375 0-17.925782-6.566406-17.925782-16.570312v-36.792969zm0 0"/><path d="m563.070313 165.398438c-6.777344 0-12.300782 1.5625-16.257813 3.125v-10.109375c4.0625-1.769532 10.941406-3.023438 17.089844-3.023438 17.09375 0 21.054687 7.503906 21.054687 18.550781v34.8125h-6.878906l-1.875-4.167968c-4.171875 3.4375-10.003906 5.417968-15.738281 5.417968-13.445313 0-17.925781-8.335937-17.925781-16.675781 0-11.257812 7.292968-16.050781 19.070312-16.988281l11.671875-.9375v-2.605469c0-5.316406-2.5-7.398437-10.210937-7.398437m-.730469 19.28125c-5.210938.625-8.234375 2.601562-8.234375 8.023437 0 3.960938 1.667969 7.710938 8.027344 7.710938 4.691406 0 7.921875-1.351563 11.148437-3.4375v-13.550782zm0 0"/><path d="m615.90625 194.996094c-2.1875 0-4.273437-.105469-6.042969-.417969-.835937.835938-1.460937 1.980469-1.460937 3.023438 0 1.773437.9375 2.710937 3.128906 3.023437l18.863281 2.292969c10.320313 1.25 13.964844 5.9375 13.964844 14.589844 0 13.445312-14.175781 18.550781-29.285156 18.550781-13.964844 0-24.078125-4.480469-24.078125-15.214844 0-7.089844 5.316406-11.257812 10.839844-12.921875v-.105469c-2.605469-1.460937-4.0625-4.378906-4.0625-7.191406 0-3.859375 2.289062-6.566406 4.6875-8.445312-5.941407-3.332032-8.335938-9.378907-8.335938-16.984375 0-11.882813 5.835938-19.804688 21.78125-19.804688 3.753906 0 6.878906.417969 9.589844 1.25h18.03125v7.402344l-7.402344 2.082031c1.042969 2.710938 1.5625 5.730469 1.5625 9.070313 0 11.878906-5.835937 19.800781-21.78125 19.800781m-3.648437 15.320312c-5.3125.9375-10.109375 3.335938-10.109375 8.339844 0 5.835938 4.171875 8.128906 13.757812 8.128906 9.175781 0 17.195313-2.710937 17.195313-8.964843 0-3.542969-1.769532-5.105469-6.042969-5.628907zm3.648437-24.59375c8.753906 0 10.738281-4.589843 10.738281-10.527343 0-5.941407-1.984375-10.527344-10.738281-10.527344s-10.734375 4.585937-10.734375 10.527344c0 5.9375 1.980469 10.527343 10.734375 10.527343"/><path d="m672.390625 155.390625c18.34375 0 21.261719 12.089844 21.261719 26.472656 0 1.773438-.105469 3.4375-.207031 5.109375h-32.414063c.207031 7.816407 3.023438 12.921875 13.652344 12.921875 6.566406 0 11.988281-1.144531 16.574219-3.128906v10.007813c-5.941407 2.5-12.714844 3.230468-18.34375 3.230468-17.40625 0-23.660157-10.421875-23.660157-27.308593 0-16.777344 6.148438-27.304688 23.136719-27.304688m-11.359375 23.453125h20.84375c0-7.089844-.414062-13.339844-9.484375-13.339844-8.546875 0-10.941406 5.519532-11.359375 13.339844"/><path d="m702.363281 145.304688h3.253907l3.003906 7.75 2.953125-7.75h3.253906v11.472656h-2.097656v-8.769531h-.054688l-3.226562 8.769531h-1.710938l-3.226562-8.769531h-.054688v8.769531h-2.09375zm-8.328125 1.929687h-3.53125v-1.929687h9.15625v1.929687h-3.53125v9.542969h-2.09375zm0 0"/></svg>