<svg xmlns="http://www.w3.org/2000/svg" width="2304" height="2304" version="1" viewBox="0 0 1728 1728"><path d="M114 864v864h292.5l-.1-707.6-.1-707.6 223.6 223.6L853.5 760l-84 84-84 84h352.9l-4.6-4.8C1014 902.9 915.3 801.9 883.9 770l-9.6-9.8 355.4-355.3L1585 49.5v1664h29V-.1l-10.5.3-10.6.3L1228.4 365 864 729.5 499.5 365 135 .5 124.5.2 114-.1V864zm263.1 122.1c0 386.3 0 704.8-.1 707.6v5.3H143V49.5l117.1 117.1 117.1 117.1-.1 702.4zm539.3-141.2l51.8 51.8-105.6.2c-58.1.1-105.6-.1-105.6-.4 0-.5 13.9-14.2 34.5-34 10.8-10.3 49.4-47.6 60.5-58.3 6.3-6.1 11.7-11.2 12-11.2.3 0 23.8 23.3 52.4 51.9z"/></svg>