<svg xmlns="http://www.w3.org/2000/svg" xmlns:xlink="http://www.w3.org/1999/xlink" x="0" y="0" enable-background="new 0 0 1000 1000" version="1.1" viewBox="0 0 1000 1000" xml:space="preserve"><metadata>Svg Vector Icons : http://www.onlinewebfonts.com/icon</metadata><g><g><path fill="#fff" d="M230.9,3746.8c-97.6-58.2-137.1-149.6-126.7-284.6c6.2-78.9,22.8-126.7,60.2-164.1c110.1-118.4-205.6-112.2,4840-112.2c4252.1,0,4661.3,2.1,4725.7,33.2c193.2,91.4,228.5,344.8,68.6,498.5l-62.3,60.2l-4719.5,4.2C363.8,3788.3,297.3,3788.3,230.9,3746.8z" transform="translate(0.000000,511.000000) scale(0.100000,-0.100000)"/><path fill="#fff" d="M255.8,383.7c-105.9-64.4-141.2-120.5-151.6-238.9C93.8,11.9,133.2-79.5,230.9-137.6c64.4-41.5,141.3-41.5,4763.1-41.5h4696.7l70.6,47.8c197.3,130.9,178.7,421.7-31.2,521.4c-64.4,31.2-475.7,33.2-4742.4,33.2C478.1,423.2,316,421.1,255.8,383.7z" transform="translate(0.000000,511.000000) scale(0.100000,-0.100000)"/><path fill="#fff" d="M301.5-2971C160.2-3022.9,100-3108.1,100-3259.7c0-112.2,64.4-218.1,166.2-268c68.5-35.3,336.5-37.4,4725.7-37.4c4528.4,0,4655.1,2.1,4740.3,39.5c62.3,29.1,99.7,64.4,130.9,128.8c74.8,145.4,35.3,292.9-112.2,400.9l-56.1,43.6l-4657.2,4.2C1178.1-2944,368-2948.2,301.5-2971z" transform="translate(0.000000,511.000000) scale(0.100000,-0.100000)"/></g></g></svg>