<svg xmlns="http://www.w3.org/2000/svg" viewBox="0 0 1134.22 822.98"><defs><style>.cls-1,.cls-10,.cls-11,.cls-12,.cls-13,.cls-14,.cls-15,.cls-16,.cls-17,.cls-18,.cls-19,.cls-2,.cls-20,.cls-21,.cls-22,.cls-3,.cls-4,.cls-5,.cls-6,.cls-7,.cls-8,.cls-9{fill:none;stroke:#231f20;stroke-miterlimit:10;}.cls-1{stroke-width:3px;}.cls-2{stroke-width:9px;}.cls-3{stroke-width:2px;}.cls-4{stroke-width:1.5px;}.cls-5{stroke-width:21px;}.cls-6{stroke-width:5px;}.cls-7{stroke-width:6px;}.cls-8{stroke-width:10px;}.cls-9{stroke-width:18px;}.cls-10{stroke-width:12px;}.cls-11{stroke-width:7px;}.cls-12{stroke-width:4px;}.cls-13{stroke-width:3.5px;}.cls-14{stroke-width:2.5px;}.cls-16{stroke-width:8px;}.cls-17{stroke-width:0.75px;}.cls-18{stroke-width:0.5px;}.cls-19{stroke-width:0.25px;}.cls-20{stroke-width:1.25px;}.cls-21{stroke-width:0.35px;}.cls-22{stroke-width:0.4px;}</style></defs><title>Bridge</title><g id="Vector_Lines" data-name="Vector Lines"><line class="cls-1" x1="172.82" y1="298.41" x2="589.82" y2="470.41"/><line class="cls-1" x1="271.82" y1="473.41" x2="576.82" y2="555.41"/><line class="cls-2" x1="207.82" y1="821.41" x2="330.82" y2="489.41"/><line class="cls-2" x1="365.82" y1="498.41" x2="267.82" y2="789.41"/><line class="cls-3" x1="280.82" y1="475.41" x2="299.82" y2="422.41"/><line class="cls-3" x1="302.32" y1="462.91" x2="280.32" y2="475.91"/><line class="cls-3" x1="271.82" y1="462.41" x2="301.82" y2="462.41"/><line class="cls-3" x1="271.32" y1="452.91" x2="302.32" y2="462.91"/><line class="cls-3" x1="269.32" y1="431.91" x2="302.32" y2="462.91"/><line class="cls-3" x1="298.32" y1="422.91" x2="302.32" y2="461.91"/><line class="cls-3" x1="322.32" y1="482.91" x2="302.32" y2="462.91"/><line class="cls-4" x1="321.32" y1="430.91" x2="302.32" y2="462.91"/><line class="cls-3" x1="325.32" y1="447.91" x2="302.32" y2="462.91"/><line class="cls-5" x1="562.32" y1="716.91" x2="592.32" y2="514.91"/><line class="cls-3" x1="542.82" y1="736.41" x2="553.82" y2="710.41"/><line class="cls-3" x1="577.32" y1="738.91" x2="572.32" y2="707.91"/><line class="cls-3" x1="531.32" y1="750.91" x2="543.32" y2="735.91"/><line class="cls-3" x1="583.32" y1="749.91" x2="577.32" y2="738.91"/><line class="cls-3" x1="527.32" y1="751.91" x2="531.32" y2="750.91"/><line class="cls-3" x1="583.32" y1="749.91" x2="587.32" y2="751.91"/><line class="cls-3" x1="526.32" y1="763.91" x2="527.32" y2="751.91"/><line class="cls-3" x1="587.32" y1="764.91" x2="587.32" y2="751.91"/><line class="cls-3" x1="526.32" y1="762.91" x2="587.32" y2="763.91"/><line class="cls-5" x1="644.32" y1="716.91" x2="660.82" y2="511.41"/><line class="cls-3" x1="623.82" y1="732.41" x2="636.82" y2="702.41"/><line class="cls-3" x1="657.32" y1="726.91" x2="656.32" y2="678.91"/><line class="cls-3" x1="612.32" y1="750.91" x2="618.32" y2="740.91"/><line class="cls-3" x1="661.32" y1="734.91" x2="657.32" y2="725.91"/><line class="cls-3" x1="608.32" y1="751.91" x2="612.32" y2="750.91"/><line class="cls-3" x1="664.32" y1="749.91" x2="668.32" y2="751.91"/><line class="cls-3" x1="607.32" y1="763.91" x2="608.32" y2="751.91"/><line class="cls-3" x1="668.32" y1="764.91" x2="668.32" y2="751.91"/><line class="cls-3" x1="607.32" y1="762.91" x2="668.32" y2="763.91"/><circle class="cls-4" cx="326.32" cy="484.91" r="4.5"/><circle class="cls-4" cx="337.82" cy="488.41" r="4.5"/><line class="cls-6" x1="324.82" y1="481.41" x2="296.32" y2="419.91"/><line class="cls-3" x1="661.32" y1="734.91" x2="664.32" y2="750.91"/><line class="cls-3" x1="624.32" y1="731.91" x2="618.32" y2="740.91"/><line class="cls-7" x1="576.32" y1="682.91" x2="638.32" y2="677.91"/><line class="cls-7" x1="573.82" y1="713.41" x2="632.32" y2="712.91"/><line class="cls-7" x1="585.32" y1="709.91" x2="606.32" y2="680.91"/><line class="cls-7" x1="568.32" y1="709.91" x2="587.32" y2="682.91"/><line class="cls-7" x1="602.32" y1="709.91" x2="624.32" y2="678.91"/><line class="cls-7" x1="620.32" y1="709.91" x2="641.32" y2="680.91"/><line class="cls-7" x1="622.82" y1="711.91" x2="603.32" y2="684.91"/><line class="cls-7" x1="639.82" y1="711.91" x2="621.32" y2="685.91"/><line class="cls-7" x1="605.82" y1="711.91" x2="584.32" y2="681.91"/><line class="cls-7" x1="587.82" y1="711.91" x2="570.32" y2="687.41"/><line class="cls-8" x1="568.32" y1="681.91" x2="652.32" y2="564.91"/><line class="cls-8" x1="651.32" y1="683.91" x2="579.32" y2="566.91"/><line class="cls-9" x1="603.32" y1="620.91" x2="621.32" y2="620.91"/><line class="cls-10" x1="657.32" y1="556.91" x2="589.32" y2="571.91"/><line class="cls-11" x1="588.32" y1="533.91" x2="617.32" y2="563.91"/><line class="cls-11" x1="618.82" y1="563.41" x2="635.82" y2="547.41"/><line class="cls-11" x1="606.82" y1="558.41" x2="633.82" y2="553.41"/><line class="cls-11" x1="592.82" y1="571.41" x2="598.82" y2="544.41"/><line class="cls-3" x1="610.82" y1="556.41" x2="594.82" y2="560.41"/><line class="cls-7" x1="594.32" y1="535.91" x2="651.32" y2="551.91"/><line class="cls-7" x1="644.32" y1="559.91" x2="647.32" y2="510.91"/><line class="cls-3" x1="617.32" y1="554.91" x2="620.32" y2="525.91"/><line class="cls-3" x1="623.32" y1="554.91" x2="623.32" y2="520.91"/><line class="cls-3" x1="627.32" y1="531.91" x2="627.32" y2="557.91"/><line class="cls-4" x1="606.32" y1="547.91" x2="630.32" y2="547.91"/><line class="cls-4" x1="602.32" y1="547.91" x2="613.32" y2="516.91"/><line class="cls-4" x1="615.32" y1="541.91" x2="590.32" y2="550.91"/><line class="cls-4" x1="631.32" y1="544.91" x2="608.32" y2="529.91"/><line class="cls-4" x1="657.32" y1="555.91" x2="811.32" y2="601.91"/><line class="cls-4" x1="868.32" y1="618.91" x2="811.32" y2="601.91"/><line class="cls-4" x1="908.32" y1="631.91" x2="861.32" y2="616.91"/><line class="cls-3" x1="0.32" y1="58.91" x2="468.32" y2="215.91"/><line class="cls-3" x1="623.32" y1="266.91" x2="465.32" y2="214.91"/><line class="cls-3" x1="170.32" y1="0.91" x2="569.32" y2="178.91"/><line class="cls-3" x1="676.32" y1="227.91" x2="627.32" y2="205.91"/><line class="cls-3" x1="569.32" y1="178.91" x2="627.32" y2="205.91"/><line class="cls-12" x1="589.32" y1="478.91" x2="626.82" y2="271.41"/><line class="cls-12" x1="604.32" y1="484.91" x2="633.32" y2="271.91"/><line class="cls-6" x1="630.32" y1="297.91" x2="677.32" y2="322.91"/><line class="cls-6" x1="622.32" y1="359.91" x2="669.82" y2="394.41"/><line class="cls-11" x1="611.82" y1="430.41" x2="636.82" y2="453.41"/><line class="cls-11" x1="658.82" y1="475.41" x2="636.82" y2="453.41"/><line class="cls-2" x1="606.82" y1="484.41" x2="633.82" y2="449.41"/><line class="cls-3" x1="626.82" y1="444.41" x2="626.82" y2="462.41"/><circle class="cls-3" cx="634.32" cy="448.91" r="6"/><line class="cls-13" x1="634.32" y1="442.91" x2="669.32" y2="397.91"/><line class="cls-13" x1="639.32" y1="445.91" x2="672.32" y2="402.91"/><line class="cls-13" x1="637.32" y1="439.91" x2="641.32" y2="443.91"/><circle class="cls-3" cx="642.32" cy="374.91" r="6"/><line class="cls-13" x1="642.32" y1="370.91" x2="677.32" y2="325.91"/><line class="cls-13" x1="647.32" y1="373.91" x2="680.32" y2="330.91"/><line class="cls-13" x1="604.32" y1="420.91" x2="639.32" y2="375.91"/><line class="cls-13" x1="609.32" y1="423.91" x2="642.32" y2="380.91"/><line class="cls-13" x1="645.32" y1="367.91" x2="649.32" y2="371.91"/><circle class="cls-3" cx="652.32" cy="307.91" r="6"/><line class="cls-13" x1="652.32" y1="303.91" x2="687.32" y2="258.91"/><line class="cls-13" x1="657.32" y1="306.91" x2="690.32" y2="263.91"/><line class="cls-13" x1="615.32" y1="352.91" x2="650.32" y2="307.91"/><line class="cls-13" x1="620.32" y1="355.91" x2="653.32" y2="312.91"/><line class="cls-13" x1="655.32" y1="300.91" x2="659.32" y2="304.91"/><line class="cls-13" x1="657.32" y1="471.91" x2="662.32" y2="416.91"/><line class="cls-13" x1="664.32" y1="403.91" x2="670.32" y2="342.91"/><line class="cls-13" x1="655.32" y1="468.91" x2="654.32" y2="511.91"/><line class="cls-13" x1="673.32" y1="331.91" x2="672.32" y2="319.91"/><line class="cls-13" x1="674.32" y1="322.91" x2="680.32" y2="276.91"/><line class="cls-13" x1="671.32" y1="514.91" x2="692.32" y2="249.91"/><line class="cls-13" x1="619.32" y1="267.91" x2="626.32" y2="274.91"/><polyline class="cls-13" points="638.32 271.91 633.32 268.91 623.32 264.91"/><line class="cls-13" x1="636.32" y1="271.91" x2="683.32" y2="242.91"/><line class="cls-13" x1="676.32" y1="227.91" x2="683.32" y2="242.91"/><line class="cls-13" x1="690.32" y1="251.91" x2="700.32" y2="247.91"/><line class="cls-13" x1="676.32" y1="227.91" x2="682.32" y2="225.91"/><line class="cls-13" x1="700.32" y1="247.91" x2="692.32" y2="233.91"/><line class="cls-13" x1="682.32" y1="225.91" x2="692.32" y2="233.91"/><line class="cls-14" x1="630.32" y1="296.91" x2="679.32" y2="269.91"/><line class="cls-14" x1="645.82" y1="288.41" x2="664.82" y2="315.41"/><line class="cls-15" x1="287.82" y1="607.91" x2="288.82" y2="727.41"/><line class="cls-15" x1="292.82" y1="594.41" x2="293.82" y2="707.41"/><line class="cls-15" x1="247.82" y1="715.41" x2="347.82" y2="561.41"/><line class="cls-15" x1="243.82" y1="727.41" x2="340.82" y2="582.41"/><line class="cls-15" x1="246.82" y1="787.41" x2="288.82" y2="665.41"/><line class="cls-15" x1="238.82" y1="794.41" x2="281.82" y2="670.41"/><line class="cls-13" x1="290.82" y1="598.41" x2="337.82" y2="583.41"/><line class="cls-15" x1="288.32" y1="644.91" x2="294.32" y2="644.91"/><line class="cls-15" x1="273.82" y1="709.41" x2="268.32" y2="709.41"/><line class="cls-15" x1="275.82" y1="702.41" x2="271.32" y2="702.41"/><line class="cls-15" x1="278.82" y1="694.41" x2="273.32" y2="694.41"/><line class="cls-15" x1="280.82" y1="687.41" x2="275.82" y2="687.41"/><line class="cls-15" x1="283.82" y1="680.41" x2="278.82" y2="680.41"/><line class="cls-15" x1="285.82" y1="673.41" x2="280.82" y2="673.41"/><line class="cls-15" x1="270.82" y1="679.41" x2="275.82" y2="679.41"/><line class="cls-15" x1="274.82" y1="674.41" x2="279.82" y2="674.41"/><line class="cls-15" x1="277.82" y1="669.41" x2="282.82" y2="669.41"/><line class="cls-15" x1="281.82" y1="663.41" x2="285.82" y2="664.41"/><line class="cls-15" x1="288.82" y1="707.41" x2="292.82" y2="707.41"/><line class="cls-15" x1="288.82" y1="701.41" x2="296.82" y2="701.41"/><line class="cls-15" x1="288.82" y1="696.41" x2="293.82" y2="696.41"/><line class="cls-15" x1="288.82" y1="691.41" x2="293.82" y2="691.41"/><line class="cls-15" x1="288.82" y1="686.41" x2="293.82" y2="686.41"/><line class="cls-15" x1="288.82" y1="681.41" x2="293.82" y2="681.41"/><line class="cls-15" x1="288.82" y1="675.41" x2="293.82" y2="675.41"/><line class="cls-15" x1="287.82" y1="670.41" x2="293.82" y2="670.41"/><line class="cls-15" x1="287.82" y1="665.41" x2="293.82" y2="665.41"/><line class="cls-15" x1="293.82" y1="661.41" x2="287.82" y2="661.41"/><line class="cls-15" x1="287.82" y1="640.41" x2="292.82" y2="640.41"/><line class="cls-15" x1="287.82" y1="636.41" x2="292.82" y2="636.41"/><line class="cls-15" x1="287.82" y1="632.41" x2="292.82" y2="632.41"/><line class="cls-15" x1="287.82" y1="628.41" x2="292.82" y2="628.41"/><line class="cls-15" x1="287.82" y1="623.41" x2="292.82" y2="623.41"/><line class="cls-15" x1="287.82" y1="619.41" x2="292.82" y2="619.41"/><line class="cls-15" x1="292.82" y1="615.41" x2="287.82" y2="615.41"/><line class="cls-15" x1="292.82" y1="611.41" x2="287.82" y2="611.41"/><line class="cls-15" x1="292.82" y1="607.41" x2="289.82" y2="607.41"/><line class="cls-15" x1="292.82" y1="647.41" x2="296.82" y2="647.41"/><line class="cls-15" x1="294.82" y1="642.41" x2="300.82" y2="642.41"/><line class="cls-15" x1="298.82" y1="636.41" x2="304.82" y2="636.41"/><line class="cls-15" x1="301.82" y1="631.41" x2="307.82" y2="631.41"/><line class="cls-15" x1="305.82" y1="626.41" x2="311.82" y2="626.41"/><line class="cls-15" x1="309.82" y1="620.41" x2="314.82" y2="621.41"/><line class="cls-15" x1="312.82" y1="615.41" x2="317.82" y2="616.41"/><line class="cls-15" x1="316.82" y1="609.41" x2="321.82" y2="611.41"/><line class="cls-15" x1="319.82" y1="604.41" x2="324.82" y2="606.41"/><line class="cls-15" x1="323.82" y1="598.41" x2="327.82" y2="600.41"/><path class="cls-15" d="M473.5,626" transform="translate(-145.68 -34.09)"/><path class="cls-15" d="M473.5,634" transform="translate(-145.68 -34.09)"/><line class="cls-3" x1="269.82" y1="440.41" x2="296.82" y2="426.41"/><line class="cls-3" x1="268.32" y1="430.91" x2="590.32" y2="530.91"/><line class="cls-6" x1="277.82" y1="423.41" x2="273.32" y2="431.91"/><line class="cls-3" x1="281.32" y1="423.91" x2="277.82" y2="426.41"/><line class="cls-3" x1="280.32" y1="423.91" x2="288.32" y2="424.91"/><line class="cls-3" x1="288.32" y1="430.91" x2="288.32" y2="423.91"/><line class="cls-3" x1="301.32" y1="449.91" x2="304.32" y2="441.91"/><line class="cls-4" x1="373.32" y1="462.91" x2="302.32" y2="462.91"/><line class="cls-4" x1="579.32" y1="542.91" x2="301.32" y2="461.91"/><line class="cls-15" x1="328.82" y1="481.41" x2="334.82" y2="437.41"/><line class="cls-15" x1="336.82" y1="439.41" x2="330.82" y2="485.41"/><line class="cls-15" x1="325.82" y1="448.41" x2="326.82" y2="437.41"/><line class="cls-15" x1="305.82" y1="439.41" x2="311.82" y2="432.41"/><line class="cls-15" x1="314.82" y1="441.41" x2="314.82" y2="433.41"/><line class="cls-3" x1="330.82" y1="482.41" x2="346.32" y2="442.91"/><line class="cls-3" x1="333.32" y1="488.91" x2="350.32" y2="444.91"/><line class="cls-12" x1="340.32" y1="484.91" x2="379.32" y2="463.91"/><line class="cls-2" x1="366.32" y1="497.91" x2="380.32" y2="454.91"/><circle class="cls-15" cx="416.57" cy="509.66" r="3.75"/><line class="cls-1" x1="391.82" y1="463.41" x2="414.82" y2="506.41"/><line class="cls-15" x1="290.82" y1="601.41" x2="377.82" y2="470.41"/><line class="cls-15" x1="300.82" y1="578.41" x2="374.82" y2="467.41"/><line class="cls-15" x1="310.82" y1="591.41" x2="325.82" y2="548.41"/><line class="cls-15" x1="314.82" y1="591.41" x2="334.82" y2="534.41"/><line class="cls-15" x1="333.82" y1="524.41" x2="349.82" y2="479.41"/><line class="cls-15" x1="339.82" y1="520.41" x2="354.82" y2="477.41"/><line class="cls-15" x1="334.82" y1="585.41" x2="327.82" y2="498.41"/><line class="cls-15" x1="338.82" y1="583.41" x2="331.82" y2="496.41"/><line class="cls-15" x1="302.82" y1="583.41" x2="298.82" y2="583.41"/><line class="cls-15" x1="305.82" y1="578.41" x2="299.82" y2="578.41"/><line class="cls-15" x1="309.82" y1="573.41" x2="303.82" y2="573.41"/><line class="cls-15" x1="312.82" y1="568.41" x2="307.82" y2="568.41"/><line class="cls-15" x1="315.82" y1="563.41" x2="310.82" y2="563.41"/><line class="cls-15" x1="319.82" y1="558.41" x2="313.82" y2="558.41"/><line class="cls-15" x1="321.82" y1="554.41" x2="317.82" y2="553.41"/><line class="cls-15" x1="320.82" y1="548.41" x2="324.82" y2="549.41"/><line class="cls-15" x1="323.82" y1="543.41" x2="328.82" y2="544.41"/><line class="cls-15" x1="311.82" y1="588.41" x2="315.82" y2="588.41"/><line class="cls-15" x1="314.82" y1="580.41" x2="318.82" y2="580.41"/><line class="cls-15" x1="316.82" y1="574.41" x2="320.82" y2="575.41"/><line class="cls-15" x1="318.82" y1="568.41" x2="322.82" y2="569.41"/><line class="cls-15" x1="320.82" y1="562.41" x2="324.82" y2="563.41"/><line class="cls-15" x1="322.82" y1="556.41" x2="326.82" y2="557.41"/><line class="cls-15" x1="324.82" y1="551.41" x2="328.82" y2="551.41"/><line class="cls-15" x1="330.82" y1="545.41" x2="327.82" y2="545.41"/><line class="cls-15" x1="333.82" y1="573.41" x2="339.82" y2="573.41"/><line class="cls-15" x1="332.82" y1="568.41" x2="337.82" y2="568.41"/><line class="cls-15" x1="332.82" y1="565.41" x2="337.82" y2="565.41"/><line class="cls-15" x1="332.82" y1="561.41" x2="336.82" y2="561.41"/><line class="cls-15" x1="332.82" y1="557.41" x2="336.82" y2="557.41"/><line class="cls-15" x1="331.82" y1="553.41" x2="336.82" y2="554.41"/><line class="cls-15" x1="331.82" y1="549.41" x2="335.82" y2="550.41"/><line class="cls-15" x1="331.82" y1="546.41" x2="335.82" y2="547.41"/><line class="cls-15" x1="331.82" y1="542.41" x2="335.82" y2="543.41"/><line class="cls-15" x1="329.82" y1="528.41" x2="334.82" y2="527.41"/><line class="cls-15" x1="329.82" y1="525.41" x2="333.82" y2="524.41"/><line class="cls-15" x1="329.82" y1="521.41" x2="333.82" y2="521.41"/><line class="cls-15" x1="328.82" y1="518.41" x2="333.82" y2="518.41"/><line class="cls-15" x1="328.82" y1="515.41" x2="333.82" y2="515.41"/><line class="cls-15" x1="328.82" y1="512.41" x2="332.82" y2="512.41"/><line class="cls-15" x1="328.82" y1="509.41" x2="332.82" y2="509.41"/><line class="cls-15" x1="332.82" y1="506.41" x2="328.82" y2="506.41"/><line class="cls-15" x1="337.82" y1="523.41" x2="333.82" y2="523.41"/><line class="cls-15" x1="340.82" y1="518.41" x2="335.82" y2="518.41"/><line class="cls-15" x1="337.82" y1="512.41" x2="342.82" y2="512.41"/><line class="cls-15" x1="344.82" y1="507.41" x2="339.82" y2="507.41"/><line class="cls-15" x1="341.82" y1="501.41" x2="346.82" y2="501.41"/><line class="cls-15" x1="343.82" y1="495.41" x2="347.82" y2="496.41"/><line class="cls-15" x1="341.82" y1="524.41" x2="337.82" y2="523.41"/><line class="cls-15" x1="344.82" y1="520.41" x2="340.82" y2="519.41"/><line class="cls-15" x1="343.82" y1="513.41" x2="347.82" y2="515.41"/><line class="cls-15" x1="346.82" y1="509.41" x2="351.82" y2="509.41"/><line class="cls-15" x1="349.82" y1="504.41" x2="354.82" y2="504.41"/><line class="cls-15" x1="353.82" y1="498.41" x2="357.82" y2="500.41"/><line class="cls-12" x1="329.82" y1="538.41" x2="335.82" y2="529.41"/><line class="cls-15" x1="301.32" y1="450.91" x2="308.32" y2="444.91"/><line class="cls-1" x1="318.82" y1="435.41" x2="370.82" y2="462.41"/><line class="cls-15" x1="341.82" y1="489.41" x2="463.82" y2="491.41"/><line class="cls-15" x1="377.82" y1="469.41" x2="341.82" y2="488.41"/><line class="cls-15" x1="346.82" y1="453.41" x2="351.82" y2="479.41"/><line class="cls-15" x1="354.82" y1="477.41" x2="353.82" y2="463.41"/><line class="cls-15" x1="354.82" y1="471.41" x2="366.82" y2="451.41"/><line class="cls-15" x1="358.82" y1="476.41" x2="365.82" y2="462.41"/><line class="cls-1" x1="350.82" y1="463.41" x2="355.82" y2="445.41"/><line class="cls-3" x1="354.82" y1="463.41" x2="359.82" y2="447.41"/><line class="cls-15" x1="360.32" y1="455.91" x2="364.32" y2="449.91"/><line class="cls-15" x1="376.82" y1="501.41" x2="384.82" y2="468.41"/><line class="cls-15" x1="398.82" y1="490.41" x2="375.82" y2="501.41"/><line class="cls-15" x1="383.82" y1="471.41" x2="398.82" y2="490.41"/><line class="cls-15" x1="413.82" y1="507.41" x2="397.82" y2="489.41"/><line class="cls-4" x1="391.82" y1="468.41" x2="398.82" y2="490.41"/><line class="cls-3" x1="398.32" y1="473.91" x2="395.32" y2="478.91"/><line class="cls-3" x1="418.32" y1="506.91" x2="427.32" y2="469.91"/><line class="cls-3" x1="396.32" y1="470.91" x2="400.32" y2="461.91"/><line class="cls-15" x1="405.32" y1="463.91" x2="399.32" y2="470.91"/><line class="cls-3" x1="408.82" y1="474.41" x2="413.32" y2="465.91"/><line class="cls-15" x1="399.32" y1="477.91" x2="405.32" y2="472.91"/><line class="cls-15" x1="398.82" y1="490.41" x2="408.82" y2="475.41"/><line class="cls-3" x1="424.82" y1="478.41" x2="399.82" y2="491.41"/><line class="cls-4" x1="426.32" y1="471.91" x2="440.32" y2="502.91"/><line class="cls-3" x1="420.32" y1="509.91" x2="461.32" y2="480.91"/><line class="cls-15" x1="465.32" y1="491.91" x2="419.82" y2="511.41"/><line class="cls-4" x1="435.32" y1="490.91" x2="439.32" y2="474.91"/><line class="cls-15" x1="444.32" y1="476.91" x2="436.32" y2="487.91"/><line class="cls-15" x1="434.82" y1="491.41" x2="447.82" y2="486.41"/><line class="cls-3" x1="453.82" y1="479.41" x2="449.82" y2="486.41"/><line class="cls-15" x1="448.32" y1="477.91" x2="451.32" y2="482.91"/><line class="cls-15" x1="418.82" y1="513.41" x2="535.32" y2="514.41"/><line class="cls-15" x1="453.82" y1="522.41" x2="459.82" y2="494.41"/><line class="cls-15" x1="477.82" y1="513.41" x2="453.82" y2="522.41"/><circle class="cls-15" cx="487.32" cy="529.91" r="2.5"/><line class="cls-15" x1="411.82" y1="505.41" x2="411.82" y2="511.41"/><line class="cls-1" x1="485.82" y1="528.41" x2="466.82" y2="490.41"/><line class="cls-14" x1="487.82" y1="527.41" x2="493.82" y2="492.41"/><line class="cls-3" x1="472.82" y1="501.41" x2="472.82" y2="494.41"/><line class="cls-4" x1="484.32" y1="497.91" x2="473.32" y2="501.91"/><line class="cls-15" x1="477.82" y1="512.41" x2="486.82" y2="498.41"/><line class="cls-3" x1="477.82" y1="513.41" x2="501.82" y2="503.41"/><line class="cls-4" x1="473.32" y1="494.91" x2="474.32" y2="485.91"/><line class="cls-4" x1="475.32" y1="494.91" x2="481.32" y2="487.91"/><line class="cls-3" x1="491.32" y1="490.91" x2="486.32" y2="497.91"/><line class="cls-15" x1="483.82" y1="488.41" x2="487.82" y2="495.41"/><line class="cls-3" x1="499.82" y1="503.41" x2="493.82" y2="493.41"/><line class="cls-3" x1="505.32" y1="495.91" x2="502.32" y2="503.91"/><line class="cls-3" x1="507.32" y1="504.91" x2="507.32" y2="495.91"/><line class="cls-3" x1="489.32" y1="528.91" x2="523.32" y2="500.91"/><line class="cls-4" x1="536.32" y1="513.91" x2="490.32" y2="530.91"/><line class="cls-16" x1="464.32" y1="493.91" x2="464.32" y2="481.91"/><line class="cls-3" x1="465.32" y1="491.91" x2="474.32" y2="485.91"/><line class="cls-15" x1="582.32" y1="531.91" x2="490.32" y2="530.91"/><line class="cls-15" x1="523.82" y1="501.41" x2="516.82" y2="539.41"/><line class="cls-15" x1="511.82" y1="522.41" x2="499.82" y2="503.41"/><line class="cls-1" x1="507.82" y1="504.41" x2="505.82" y2="514.41"/><line class="cls-15" x1="513.82" y1="499.41" x2="507.82" y2="506.41"/><line class="cls-15" x1="510.82" y1="523.41" x2="523.82" y2="501.41"/><line class="cls-15" x1="517.82" y1="539.41" x2="582.82" y2="519.41"/><line class="cls-1" x1="543.82" y1="543.41" x2="524.82" y2="502.41"/><ellipse class="cls-4" cx="692.43" cy="579.25" rx="2.77" ry="4.61" transform="translate(-192.41 1063.46) rotate(-74.95)"/><circle class="cls-15" cx="537.32" cy="512.91" r="2.5"/><line class="cls-3" x1="532.82" y1="504.41" x2="534.32" y2="512.91"/><line class="cls-15" x1="530.32" y1="503.91" x2="533.32" y2="508.91"/><line class="cls-3" x1="537.82" y1="510.41" x2="537.82" y2="506.41"/><line class="cls-15" x1="543.82" y1="508.41" x2="539.82" y2="512.41"/><line class="cls-1" x1="535.82" y1="526.41" x2="536.82" y2="514.41"/><line class="cls-15" x1="536.82" y1="518.41" x2="538.82" y2="528.41"/><line class="cls-15" x1="541.82" y1="531.41" x2="534.82" y2="523.41"/><line class="cls-15" x1="551.82" y1="518.41" x2="541.82" y2="531.41"/><line class="cls-1" x1="549.82" y1="518.41" x2="546.82" y2="542.41"/><line class="cls-1" x1="549.82" y1="543.41" x2="568.82" y2="524.41"/><line class="cls-4" x1="591.32" y1="534.91" x2="550.82" y2="545.41"/><line class="cls-4" x1="578.32" y1="546.91" x2="551.32" y2="547.91"/><line class="cls-3" x1="571.32" y1="553.91" x2="575.32" y2="525.91"/><line class="cls-4" x1="551.32" y1="512.91" x2="570.32" y2="539.91"/><line class="cls-17" x1="540.82" y1="530.41" x2="537.32" y2="515.91"/><line class="cls-3" x1="547.32" y1="517.91" x2="538.82" y2="521.41"/><line class="cls-12" x1="550.32" y1="518.91" x2="552.32" y2="510.91"/><line class="cls-15" x1="547.82" y1="509.41" x2="550.32" y2="513.91"/><line class="cls-15" x1="564.82" y1="515.41" x2="563.82" y2="529.41"/><line class="cls-15" x1="563.82" y1="530.41" x2="574.82" y2="526.41"/><line class="cls-15" x1="567.82" y1="516.41" x2="567.82" y2="524.41"/><line class="cls-15" x1="568.82" y1="523.41" x2="571.82" y2="518.41"/><line class="cls-6" x1="582.82" y1="523.41" x2="570.82" y2="519.41"/><line class="cls-15" x1="578.82" y1="527.91" x2="578.82" y2="523.41"/><line class="cls-4" x1="908.32" y1="631.91" x2="991.82" y2="661.41"/><line class="cls-4" x1="990.32" y1="660.91" x2="1040.32" y2="682.91"/><line class="cls-4" x1="1040.32" y1="682.91" x2="1070.32" y2="699.91"/><line class="cls-4" x1="1078.32" y1="738.91" x2="1070.32" y2="699.91"/><line class="cls-4" x1="1098.32" y1="730.91" x2="1072.32" y2="708.91"/><line class="cls-4" x1="1077.32" y1="731.91" x2="1092.32" y2="713.91"/><line class="cls-4" x1="1088.32" y1="734.91" x2="1083.32" y2="709.91"/><line class="cls-2" x1="1077.32" y1="734.91" x2="1102.32" y2="733.91"/><line class="cls-12" x1="1072.32" y1="708.91" x2="1083.32" y2="709.91"/><line class="cls-3" x1="1070.32" y1="699.91" x2="1113.32" y2="728.91"/><line class="cls-3" x1="1099.32" y1="719.91" x2="1101.32" y2="729.91"/><line class="cls-3" x1="1101.32" y1="737.91" x2="1101.32" y2="727.91"/><line class="cls-15" x1="1096.32" y1="696.91" x2="1124.32" y2="719.91"/><line class="cls-15" x1="1133.82" y1="733.41" x2="1123.82" y2="719.41"/><line class="cls-15" x1="1133.82" y1="733.41" x2="1111.82" y2="729.41"/><line class="cls-3" x1="1055.82" y1="622.41" x2="1078.32" y2="736.91"/><line class="cls-3" x1="1099.32" y1="722.91" x2="1078.32" y2="620.91"/><line class="cls-3" x1="668.32" y1="529.91" x2="672.32" y2="513.91"/><line class="cls-14" x1="700.32" y1="247.91" x2="764.32" y2="343.91"/><line class="cls-3" x1="763.82" y1="343.41" x2="822.82" y2="429.41"/><line class="cls-3" x1="685.32" y1="341.91" x2="757.32" y2="434.91"/><line class="cls-15" x1="888.32" y1="581.91" x2="858.32" y2="550.91"/><line class="cls-4" x1="756.82" y1="434.41" x2="808.82" y2="496.41"/><line class="cls-4" x1="807.32" y1="494.91" x2="858.32" y2="550.91"/><line class="cls-3" x1="822.82" y1="429.41" x2="881.82" y2="508.41"/><line class="cls-15" x1="991.32" y1="629.91" x2="964.32" y2="604.91"/><line class="cls-3" x1="881.82" y1="508.41" x2="913.82" y2="548.41"/><line class="cls-4" x1="964.32" y1="604.91" x2="940.32" y2="578.91"/><line class="cls-4" x1="913.32" y1="547.91" x2="940.32" y2="578.91"/><line class="cls-15" x1="1079.32" y1="622.91" x2="1118.82" y2="715.41"/><line class="cls-15" x1="1060.82" y1="651.41" x2="1088.82" y2="669.41"/><line class="cls-4" x1="1056.82" y1="631.41" x2="1084.82" y2="649.41"/><line class="cls-4" x1="1061.32" y1="651.91" x2="1080.32" y2="628.91"/><line class="cls-15" x1="1060.32" y1="632.91" x2="1081.82" y2="676.41"/><line class="cls-15" x1="1056.82" y1="631.41" x2="1080.82" y2="629.41"/><line class="cls-15" x1="1055.82" y1="625.41" x2="1078.82" y2="623.41"/><line class="cls-3" x1="1083.82" y1="649.41" x2="1065.82" y2="670.41"/><line class="cls-1" x1="1088.32" y1="668.91" x2="1080.32" y2="678.91"/><polyline class="cls-12" points="797.32 543.91 692.32 498.91 675.82 511.41"/><line class="cls-1" x1="794.82" y1="543.41" x2="888.82" y2="583.41"/><line class="cls-15" x1="797.82" y1="542.41" x2="800.82" y2="545.41"/><line class="cls-3" x1="884.82" y1="582.41" x2="963.82" y2="617.41"/><line class="cls-3" x1="885.32" y1="579.91" x2="892.32" y2="585.91"/><line class="cls-15" x1="961.32" y1="616.91" x2="991.32" y2="629.91"/><line class="cls-15" x1="962.82" y1="616.41" x2="971.82" y2="621.41"/><line class="cls-15" x1="1033.82" y1="654.41" x2="1042.82" y2="646.41"/><line class="cls-15" x1="1055.82" y1="622.41" x2="1049.82" y2="637.41"/><line class="cls-15" x1="1042.82" y1="646.41" x2="1049.82" y2="637.41"/><line class="cls-15" x1="991.32" y1="629.91" x2="1034.32" y2="654.91"/><line class="cls-15" x1="1031.82" y1="653.41" x2="1066.82" y2="670.41"/><line class="cls-15" x1="1096.82" y1="697.41" x2="1092.82" y2="688.41"/><line class="cls-15" x1="1065.82" y1="670.41" x2="1080.82" y2="678.41"/><line class="cls-15" x1="1093.82" y1="690.41" x2="1078.82" y2="677.41"/><line class="cls-3" x1="629.32" y1="485.91" x2="658.32" y2="280.91"/><line class="cls-3" x1="612.32" y1="478.91" x2="655.32" y2="497.91"/><line class="cls-15" x1="667.82" y1="559.41" x2="672.82" y2="548.41"/><line class="cls-15" x1="666.82" y1="549.41" x2="672.82" y2="548.41"/><polyline class="cls-15" points="680.82 562.41 680.82 559.41 689.82 557.41 692.82 563.41 686.82 564.41"/><polyline class="cls-15" points="699.82 568.41 700.82 565.41 709.82 563.41 711.82 568.41 708.82 571.41"/><polyline class="cls-15" points="719.82 574.41 719.82 571.41 728.82 569.41 729.82 574.41 726.82 576.41"/><polyline class="cls-15" points="737.82 579.41 740.82 576.41 745.82 576.41 745.82 582.41"/><polyline class="cls-15" points="753.82 584.41 757.82 581.41 761.82 581.41 761.82 586.41"/><polyline class="cls-15" points="770.82 589.41 771.82 586.41 775.82 586.41 776.82 591.41"/><polyline class="cls-15" points="783.82 593.41 787.82 590.41 789.82 591.41 791.82 596.41"/><polyline class="cls-15" points="797.82 597.41 800.82 594.41 802.82 595.41 803.82 599.41"/><polyline class="cls-15" points="810.82 601.41 812.82 598.41 814.82 598.41 814.82 602.41"/><polyline class="cls-15" points="827.82 606.41 825.82 602.41 822.82 605.41"/><polyline class="cls-15" points="836.82 609.41 835.82 606.41 833.82 608.41"/><line class="cls-15" x1="711.82" y1="266.41" x2="694.82" y2="500.41"/><line class="cls-17" x1="719.82" y1="528.41" x2="731.82" y2="295.41"/><line class="cls-17" x1="729.82" y1="289.41" x2="714.82" y2="508.41"/><line class="cls-17" x1="696.82" y1="501.41" x2="713.82" y2="268.41"/><line class="cls-17" x1="746.82" y1="318.41" x2="739.82" y2="535.41"/><line class="cls-15" x1="735.82" y1="406.41" x2="732.82" y2="532.41"/><line class="cls-15" x1="750.82" y1="425.41" x2="745.82" y2="535.41"/><line class="cls-17" x1="761.82" y1="340.41" x2="759.82" y2="544.41"/><line class="cls-17" x1="761.82" y1="545.41" x2="763.82" y2="343.41"/><line class="cls-17" x1="776.82" y1="362.41" x2="776.82" y2="533.41"/><line class="cls-17" x1="779.82" y1="366.41" x2="777.82" y2="535.41"/><line class="cls-17" x1="791.82" y1="384.41" x2="794.82" y2="556.91"/><line class="cls-15" x1="790.82" y1="474.41" x2="791.82" y2="555.91"/><line class="cls-17" x1="794.82" y1="388.41" x2="795.82" y2="558.41"/><line class="cls-15" x1="801.82" y1="488.41" x2="802.82" y2="560.41"/><line class="cls-17" x1="805.82" y1="404.41" x2="810.82" y2="566.41"/><line class="cls-17" x1="808.82" y1="408.41" x2="812.82" y2="569.41"/><line class="cls-17" x1="819.82" y1="424.41" x2="822.82" y2="569.41"/><line class="cls-17" x1="821.82" y1="427.41" x2="824.82" y2="571.41"/><line class="cls-17" x1="831.82" y1="440.41" x2="835.82" y2="573.41"/><line class="cls-17" x1="833.82" y1="444.41" x2="836.82" y2="573.41"/><line class="cls-17" x1="842.82" y1="456.41" x2="846.82" y2="577.41"/><line class="cls-17" x1="844.82" y1="455.41" x2="848.82" y2="577.41"/><line class="cls-17" x1="855.82" y1="473.41" x2="863.82" y2="584.41"/><line class="cls-17" x1="853.82" y1="470.41" x2="861.82" y2="584.41"/><line class="cls-17" x1="864.82" y1="485.41" x2="872.82" y2="589.41"/><line class="cls-17" x1="867.82" y1="490.41" x2="873.82" y2="590.41"/><line class="cls-17" x1="874.82" y1="499.41" x2="880.82" y2="592.41"/><line class="cls-17" x1="877.82" y1="503.41" x2="882.82" y2="592.41"/><line class="cls-17" x1="884.82" y1="512.41" x2="890.82" y2="594.41"/><line class="cls-17" x1="887.82" y1="516.41" x2="892.82" y2="596.41"/><line class="cls-17" x1="893.82" y1="523.41" x2="899.82" y2="598.41"/><line class="cls-17" x1="895.82" y1="526.41" x2="901.82" y2="599.41"/><line class="cls-17" x1="902.82" y1="535.41" x2="907.82" y2="602.41"/><line class="cls-17" x1="904.82" y1="538.41" x2="908.82" y2="602.41"/><line class="cls-17" x1="911.82" y1="545.41" x2="914.82" y2="604.41"/><line class="cls-17" x1="913.82" y1="547.41" x2="915.82" y2="605.41"/><line class="cls-15" x1="853.82" y1="546.41" x2="853.82" y2="580.41"/><line class="cls-18" x1="919.82" y1="555.41" x2="923.82" y2="606.41"/><line class="cls-18" x1="921.82" y1="558.41" x2="925.82" y2="609.41"/><line class="cls-18" x1="926.82" y1="563.41" x2="930.82" y2="612.41"/><line class="cls-18" x1="929.82" y1="566.41" x2="931.82" y2="612.41"/><line class="cls-18" x1="933.82" y1="571.41" x2="936.82" y2="614.41"/><line class="cls-18" x1="936.82" y1="574.41" x2="938.82" y2="615.41"/><line class="cls-18" x1="941.82" y1="581.41" x2="943.82" y2="615.41"/><line class="cls-18" x1="943.82" y1="582.41" x2="944.82" y2="616.41"/><line class="cls-18" x1="946.82" y1="586.41" x2="948.82" y2="619.41"/><line class="cls-18" x1="948.82" y1="588.41" x2="948.82" y2="619.41"/><line class="cls-18" x1="952.82" y1="593.41" x2="953.82" y2="621.41"/><line class="cls-18" x1="954.82" y1="594.41" x2="953.82" y2="620.41"/><line class="cls-18" x1="958.82" y1="599.41" x2="959.82" y2="623.41"/><line class="cls-18" x1="960.82" y1="601.41" x2="959.82" y2="619.41"/><line class="cls-18" x1="964.82" y1="605.41" x2="964.82" y2="624.41"/><line class="cls-18" x1="965.82" y1="606.41" x2="964.82" y2="626.41"/><line class="cls-15" x1="969.82" y1="610.41" x2="969.82" y2="628.41"/><line class="cls-15" x1="976.82" y1="616.41" x2="976.82" y2="631.41"/><line class="cls-15" x1="983.82" y1="623.41" x2="983.82" y2="634.41"/><line class="cls-15" x1="1044.82" y1="659.41" x2="1052.82" y2="656.41"/><line class="cls-15" x1="1052.82" y1="656.41" x2="1061.82" y2="651.41"/><line class="cls-17" x1="157.82" y1="302.41" x2="589.82" y2="476.41"/><line class="cls-15" x1="153.82" y1="296.41" x2="590.82" y2="474.41"/><line class="cls-3" x1="279.82" y1="342.41" x2="276.32" y2="351.91"/><line class="cls-3" x1="298.32" y1="350.91" x2="294.32" y2="358.91"/><line class="cls-3" x1="316.32" y1="357.91" x2="313.32" y2="366.91"/><line class="cls-3" x1="334.32" y1="364.91" x2="330.32" y2="373.91"/><line class="cls-3" x1="348.32" y1="380.91" x2="351.32" y2="371.91"/><line class="cls-3" x1="367.32" y1="378.91" x2="363.32" y2="386.91"/><line class="cls-3" x1="383.32" y1="384.91" x2="380.32" y2="393.91"/><line class="cls-3" x1="398.32" y1="389.91" x2="394.32" y2="399.91"/><line class="cls-3" x1="411.32" y1="396.91" x2="409.32" y2="405.91"/><line class="cls-3" x1="426.32" y1="401.91" x2="422.32" y2="410.91"/><line class="cls-3" x1="438.32" y1="407.91" x2="436.32" y2="416.91"/><line class="cls-3" x1="451.32" y1="413.91" x2="448.32" y2="421.91"/><line class="cls-3" x1="461.32" y1="426.91" x2="464.32" y2="418.91"/><line class="cls-3" x1="473.32" y1="431.91" x2="476.32" y2="423.91"/><line class="cls-3" x1="489.32" y1="428.91" x2="485.32" y2="436.91"/><line class="cls-3" x1="500.32" y1="433.91" x2="497.32" y2="441.91"/><line class="cls-3" x1="510.32" y1="437.91" x2="509.32" y2="446.91"/><line class="cls-3" x1="520.32" y1="441.91" x2="519.32" y2="450.91"/><line class="cls-3" x1="531.32" y1="446.91" x2="531.32" y2="455.91"/><line class="cls-3" x1="542.32" y1="450.91" x2="541.32" y2="459.91"/><line class="cls-3" x1="552.32" y1="455.91" x2="549.32" y2="462.91"/><line class="cls-3" x1="562.32" y1="459.91" x2="559.32" y2="466.91"/><line class="cls-3" x1="571.32" y1="462.91" x2="568.32" y2="470.91"/><line class="cls-3" x1="580.32" y1="466.91" x2="578.32" y2="474.91"/><line class="cls-15" x1="613.32" y1="482.91" x2="654.32" y2="499.91"/><line class="cls-17" x1="609.82" y1="484.41" x2="654.82" y2="502.41"/><line class="cls-3" x1="621.82" y1="482.41" x2="619.82" y2="491.41"/><line class="cls-1" x1="629.32" y1="485.91" x2="628.32" y2="493.91"/><line class="cls-3" x1="636.32" y1="489.91" x2="636.32" y2="496.91"/><line class="cls-3" x1="643.32" y1="492.91" x2="643.32" y2="499.91"/><line class="cls-3" x1="649.32" y1="494.91" x2="649.32" y2="501.91"/><line class="cls-15" x1="678.32" y1="510.91" x2="691.32" y2="515.91"/><line class="cls-12" x1="691.82" y1="500.41" x2="691.82" y2="518.41"/><line class="cls-1" x1="692.32" y1="499.91" x2="706.32" y2="524.91"/><line class="cls-12" x1="715.32" y1="509.91" x2="715.32" y2="527.91"/><line class="cls-1" x1="723.32" y1="529.91" x2="737.32" y2="516.91"/><line class="cls-12" x1="736.82" y1="518.41" x2="736.82" y2="537.41"/><line class="cls-1" x1="736.82" y1="519.41" x2="749.82" y2="542.41"/><line class="cls-3" x1="774.82" y1="533.41" x2="762.82" y2="546.41"/><line class="cls-1" x1="757.32" y1="543.91" x2="756.32" y2="525.91"/><line class="cls-14" x1="774.82" y1="535.41" x2="785.82" y2="555.41"/><line class="cls-1" x1="775.82" y1="551.41" x2="774.82" y2="535.41"/><line class="cls-4" x1="805.82" y1="548.41" x2="796.82" y2="558.41"/><line class="cls-1" x1="807.32" y1="548.91" x2="807.32" y2="562.91"/><line class="cls-3" x1="815.82" y1="566.41" x2="807.82" y2="550.41"/><line class="cls-3" x1="820.32" y1="553.91" x2="821.32" y2="568.91"/><line class="cls-1" x1="791.32" y1="540.91" x2="791.32" y2="556.91"/><line class="cls-3" x1="833.82" y1="560.41" x2="825.82" y2="570.41"/><line class="cls-3" x1="834.32" y1="573.91" x2="834.32" y2="560.91"/><line class="cls-3" x1="835.32" y1="561.91" x2="843.32" y2="578.91"/><line class="cls-3" x1="847.32" y1="579.91" x2="846.32" y2="564.91"/><line class="cls-4" x1="857.32" y1="569.91" x2="851.32" y2="579.91"/><line class="cls-14" x1="858.82" y1="583.41" x2="858.32" y2="570.91"/><line class="cls-4" x1="858.82" y1="571.41" x2="865.82" y2="586.41"/><line class="cls-3" x1="869.32" y1="573.91" x2="869.32" y2="587.91"/><line class="cls-4" x1="869.32" y1="579.91" x2="873.32" y2="588.91"/><line class="cls-3" x1="879.32" y1="578.91" x2="872.32" y2="588.91"/><line class="cls-4" x1="879.32" y1="580.91" x2="879.32" y2="591.91"/><line class="cls-15" x1="880.32" y1="580.91" x2="885.32" y2="593.91"/><line class="cls-3" x1="888.32" y1="582.91" x2="889.32" y2="595.91"/><line class="cls-4" x1="897.32" y1="586.91" x2="891.32" y2="596.91"/><line class="cls-1" x1="898.32" y1="587.91" x2="899.32" y2="599.91"/><line class="cls-15" x1="906.82" y1="601.41" x2="897.82" y2="588.41"/><line class="cls-4" x1="905.82" y1="592.41" x2="906.82" y2="602.41"/><line class="cls-4" x1="914.32" y1="594.91" x2="908.32" y2="601.91"/><line class="cls-4" x1="914.32" y1="596.91" x2="918.32" y2="606.91"/><line class="cls-15" x1="921.32" y1="598.91" x2="922.32" y2="609.91"/><line class="cls-15" x1="928.32" y1="600.91" x2="924.32" y2="609.91"/><line class="cls-15" x1="928.82" y1="601.41" x2="929.82" y2="611.41"/><line class="cls-17" x1="928.82" y1="603.41" x2="933.82" y2="613.41"/><line class="cls-15" x1="934.82" y1="605.41" x2="935.82" y2="614.41"/><line class="cls-4" x1="941.82" y1="608.41" x2="937.82" y2="614.41"/><line class="cls-4" x1="942.32" y1="607.91" x2="942.32" y2="616.91"/><line class="cls-15" x1="946.32" y1="617.91" x2="942.32" y2="609.91"/><line class="cls-15" x1="947.82" y1="611.41" x2="947.82" y2="618.41"/><line class="cls-4" x1="950.82" y1="620.41" x2="948.82" y2="614.41"/><line class="cls-15" x1="953.32" y1="612.91" x2="951.32" y2="619.91"/><line class="cls-3" x1="956.82" y1="623.41" x2="953.82" y2="613.41"/><line class="cls-15" x1="961.32" y1="624.91" x2="958.32" y2="614.91"/><line class="cls-4" x1="964.82" y1="618.41" x2="961.82" y2="625.41"/><line class="cls-15" x1="965.32" y1="618.91" x2="967.32" y2="627.91"/><line class="cls-15" x1="972.82" y1="630.41" x2="968.82" y2="620.41"/><line class="cls-3" x1="973.82" y1="622.41" x2="975.82" y2="630.41"/><line class="cls-4" x1="978.82" y1="624.41" x2="980.82" y2="633.41"/><line class="cls-15" x1="986.32" y1="635.91" x2="982.32" y2="625.91"/><line class="cls-15" x1="990.15" y1="638.3" x2="988.15" y2="628.3"/><line class="cls-4" x1="994.82" y1="640.41" x2="988.82" y2="628.41"/><line class="cls-17" x1="998.32" y1="641.91" x2="994.32" y2="631.91"/><line class="cls-17" x1="1002.82" y1="643.41" x2="998.82" y2="634.41"/><line class="cls-17" x1="1005.82" y1="638.41" x2="1009.82" y2="647.41"/><line class="cls-17" x1="1013.82" y1="643.41" x2="1015.82" y2="649.41"/><line class="cls-17" x1="1020.82" y1="647.41" x2="1022.82" y2="652.41"/><line class="cls-18" x1="1024.82" y1="649.41" x2="1026.82" y2="654.41"/><line class="cls-18" x1="1029.82" y1="652.41" x2="1030.82" y2="655.41"/><polyline class="cls-18" points="591.32 479.41 589.82 479.41 167.82 307.41"/><line class="cls-3" x1="590.32" y1="475.91" x2="589.82" y2="479.41"/><line class="cls-18" x1="602.82" y1="484.41" x2="654.82" y2="505.41"/><line class="cls-3" x1="604.82" y1="484.41" x2="610.82" y2="486.41"/><line class="cls-17" x1="632.82" y1="496.41" x2="626.82" y2="493.41"/><line class="cls-3" x1="629.32" y1="486.91" x2="628.82" y2="494.41"/><line class="cls-19" x1="632.32" y1="495.91" x2="641.32" y2="499.91"/><line class="cls-15" x1="635.32" y1="496.91" x2="637.32" y2="497.91"/><line class="cls-15" x1="636.82" y1="495.41" x2="636.82" y2="497.41"/><line class="cls-18" x1="636.82" y1="496.41" x2="637.82" y2="498.41"/><line class="cls-15" x1="642.32" y1="499.91" x2="643.32" y2="499.91"/><line class="cls-19" x1="637.82" y1="498.41" x2="635.82" y2="496.41"/><line class="cls-15" x1="643.82" y1="498.91" x2="643.82" y2="500.91"/><line class="cls-19" x1="643.44" y1="499.98" x2="645.12" y2="501.46"/><line class="cls-19" x1="645.12" y1="501.46" x2="642.52" y2="500.36"/><line class="cls-20" x1="642.82" y1="499.41" x2="643.82" y2="500.41"/><line class="cls-19" x1="649.32" y1="500.91" x2="646.32" y2="501.91"/><line class="cls-21" x1="646.32" y1="501.91" x2="649.32" y2="501.91"/><line class="cls-19" x1="649.32" y1="500.91" x2="652.82" y2="504.41"/><line class="cls-19" x1="651.32" y1="503.91" x2="649.32" y2="501.91"/><line class="cls-17" x1="647.32" y1="501.91" x2="649.32" y2="500.91"/><line class="cls-18" x1="650.82" y1="503.41" x2="647.32" y2="501.91"/><line class="cls-3" x1="648.82" y1="501.41" x2="648.82" y2="502.41"/><line class="cls-17" x1="649.32" y1="502.91" x2="649.32" y2="501.91"/><line class="cls-18" x1="649.82" y1="501.41" x2="650.82" y2="503.41"/><line class="cls-19" x1="648.82" y1="502.41" x2="651.82" y2="503.41"/><line class="cls-19" x1="652.32" y1="503.91" x2="649.32" y2="501.91"/><line class="cls-19" x1="651.32" y1="503.91" x2="651.32" y2="502.91"/><line class="cls-22" x1="653.32" y1="504.91" x2="649.32" y2="501.91"/><line class="cls-22" x1="649.32" y1="501.91" x2="650.32" y2="502.91"/><line class="cls-22" x1="649.32" y1="500.91" x2="650.32" y2="502.91"/><line class="cls-18" x1="651.32" y1="503.91" x2="650.32" y2="502.91"/><line class="cls-19" x1="648.82" y1="501.41" x2="651.82" y2="503.41"/><line class="cls-19" x1="653.32" y1="504.91" x2="648.32" y2="501.91"/><line class="cls-18" x1="648.32" y1="500.91" x2="654.32" y2="504.91"/><line class="cls-18" x1="671.82" y1="510.41" x2="797.82" y2="560.41"/><line class="cls-18" x1="797.82" y1="560.41" x2="935.82" y2="614.41"/><polyline class="cls-18" points="1037.82 656.41 1025.82 653.41 935.82 614.41"/><line class="cls-15" x1="265.82" y1="716.41" x2="270.82" y2="716.41"/><line class="cls-15" x1="263.82" y1="722.41" x2="268.82" y2="722.41"/><line class="cls-15" x1="261.82" y1="728.41" x2="266.82" y2="728.41"/><line class="cls-15" x1="259.82" y1="734.41" x2="264.82" y2="734.41"/><line class="cls-15" x1="257.82" y1="740.41" x2="262.82" y2="740.41"/><line class="cls-15" x1="255.82" y1="746.41" x2="260.82" y2="746.41"/><line class="cls-15" x1="253.82" y1="752.41" x2="258.82" y2="752.41"/><line class="cls-15" x1="251.82" y1="758.41" x2="256.82" y2="758.41"/><line class="cls-15" x1="248.82" y1="764.41" x2="254.82" y2="764.41"/><line class="cls-15" x1="246.82" y1="770.41" x2="252.82" y2="770.41"/></g></svg>