<svg xmlns="http://www.w3.org/2000/svg" xmlns:xlink="http://www.w3.org/1999/xlink" viewBox="0 0 515.21 603"><defs><style>.cls-1{fill:#dda6a6;}.cls-2{fill:#fff;}.cls-3{fill:#ffd6a4;}.cls-12,.cls-13,.cls-15,.cls-19,.cls-4,.cls-7,.cls-8,.cls-9{fill:none;}.cls-4{stroke:#ffc458;}.cls-12,.cls-13,.cls-17,.cls-19,.cls-4,.cls-5,.cls-8,.cls-9{stroke-miterlimit:10;}.cls-15,.cls-4,.cls-5,.cls-6,.cls-7,.cls-8,.cls-9{stroke-width:5px;}.cls-17,.cls-21,.cls-5{fill:#ef9f00;}.cls-17,.cls-5,.cls-7,.cls-8{stroke:#ef9f00;}.cls-12,.cls-13,.cls-16,.cls-19,.cls-6,.cls-8{stroke-linecap:round;}.cls-15,.cls-16,.cls-6,.cls-7{stroke-linejoin:round;}.cls-6{fill:url(#linear-gradient);stroke:url(#linear-gradient-2);}.cls-7{stroke-linecap:square;}.cls-9{stroke:#b22d2d;}.cls-10{fill:#b22d2d;}.cls-11{fill:#c82e2e;}.cls-12,.cls-13{stroke:#c82e2e;}.cls-12{stroke-width:3px;}.cls-13{stroke-width:5.2px;}.cls-14{fill:#d63838;}.cls-15{stroke:#fff;}.cls-16{fill:#fcd99d;stroke:#fcd99d;}.cls-18{fill:#d7e4f9;}.cls-19{stroke:#d3b28d;stroke-width:6px;}.cls-20{fill:#d3b28d;}</style><linearGradient id="linear-gradient" x1="191" y1="213" x2="191" y2="122" gradientUnits="userSpaceOnUse"><stop offset="0" stop-color="#ef9f00"/><stop offset="0.08" stop-color="#f5ac1f"/><stop offset="0.17" stop-color="#f9b637"/><stop offset="0.25" stop-color="#fcbc46"/><stop offset="0.31" stop-color="#fdbe4b"/><stop offset="0.37" stop-color="#fec04f"/><stop offset="0.54" stop-color="#ffc356"/><stop offset="1" stop-color="#ffc458"/></linearGradient><linearGradient id="linear-gradient-2" x1="191" y1="215.5" x2="191" y2="119.5" xlink:href="#linear-gradient"/></defs><title>strestAsset 1</title><g id="Layer_2" data-name="Layer 2"><g id="Icon_Only_4" data-name="Icon Only 4"><rect class="cls-1" x="106" y="459" width="232" height="64" rx="4"/><rect class="cls-2" x="139" y="461" width="23" height="30" rx="4"/><rect class="cls-2" x="164" y="461" width="23" height="30" rx="4"/><rect class="cls-2" x="189" y="461" width="23" height="30" rx="4"/><rect class="cls-2" x="214" y="461" width="23" height="30" rx="4"/><rect class="cls-2" x="239" y="461" width="23" height="30" rx="4"/><rect class="cls-2" x="264" y="461" width="23" height="30" rx="4"/><rect class="cls-2" x="289" y="461" width="23" height="30" rx="4"/><rect class="cls-2" x="137" y="502" width="23" height="30" rx="4"/><rect class="cls-2" x="162" y="502" width="23" height="30" rx="4"/><rect class="cls-2" x="187" y="502" width="23" height="30" rx="4"/><rect class="cls-2" x="212" y="502" width="23" height="30" rx="4"/><rect class="cls-2" x="237" y="502" width="23" height="30" rx="4"/><rect class="cls-2" x="262" y="502" width="23" height="30" rx="4"/><rect class="cls-2" x="287" y="502" width="23" height="30" rx="4"/><path class="cls-3" d="M351.81,74H30A15,15,0,0,0,15,89V421.29C15,521.23,96.77,603,196.71,603h29.75c77.19,0,140.35-63.16,140.35-140.35V89A15,15,0,0,0,351.81,74ZM329.47,500c-.8,2.22-2,6.29-3.43,8.14a17.53,17.53,0,0,1-1.55,1.62,28.28,28.28,0,0,1-7,5L315,516c-5,3-21.22,3-27.29,3H167.65c-4.15,0-12.87-1.57-20.31-3.09-8.13-1.66-14.52-3.63-20.53-7.66l-1-1c-14.27-10-19.81-48.25,4.78-41.8a23.56,23.56,0,0,1,4.85,2.35S146,470.26,151.35,470c2.48-.1,14,0,16.3,0H296.4c2.66,0,10.9-.32,15.4.22,4,.47,10.06-.6,14-1.32l.26,0c6.92.14,9.69,9.53,7.52,15.76A114.28,114.28,0,0,1,329.47,500Z"/><ellipse class="cls-4" cx="191" cy="121.5" rx="178.5" ry="25"/><path d="M35,308l-20.69.05c-5.74,0-5.63-75.93-3.31-81.18A19.61,19.61,0,0,0,13,219l2-98L10,28A15,15,0,0,1,25,13H189c8.25,0,19-10.25,19-2l123,6,24,191L65.52,219.69a64,64,0,0,0-11.89,31.92L50,293A15,15,0,0,1,35,308Z"/><path d="M107,180.5A53.5,53.5,0,0,1,53.5,234C24,234,24,127,53.5,127A53.5,53.5,0,0,1,107,180.5Z"/><path d="M54,113.5c0,24-24,58.11-27,43.5C13,88,3,128,3,104s9.09-34,24-34S54,89.48,54,113.5Z"/><ellipse cx="27" cy="67.5" rx="27" ry="39.5"/><ellipse cx="20.5" cy="36" rx="15.5" ry="18"/><circle cx="44.5" cy="18.5" r="17.5"/><ellipse cx="77.5" cy="13" rx="27.5" ry="12"/><ellipse cx="113" cy="18.5" rx="23" ry="18.5"/><circle cx="141" cy="13" r="12"/><ellipse cx="158.5" cy="10.5" rx="14.5" ry="8.5"/><circle cx="180.5" cy="16.5" r="11.5"/><path d="M363.94,308l4.76.05c1.33,0,1.3-75.93.77-81.18A75.9,75.9,0,0,1,369,219l-.45-98L369.7,28c0-8.25-1.56-15-3.46-15H328.46c-1.9,0-3.46,6.75-3.46,15l31.91,191.69a226.58,226.58,0,0,1,2.73,31.92l.84,41.39C360.48,301.25,362,308,363.94,308Z"/><path d="M347.35,180.5c0,29.55,5.52,53.5,12.32,53.5s6.81-107,0-107S347.35,151,347.35,180.5Z"/><path d="M349.56,116.5c0,24,5.54,58.11,6.22,43.5,3.22-69,5.53-29,5.53-53s-2.1-34-5.53-34S349.56,92.48,349.56,116.5Z"/><ellipse cx="365.78" cy="67.5" rx="6.22" ry="39.5"/><ellipse cx="367.28" cy="36" rx="3.57" ry="18"/><path d="M357.72,19.5c0,9.66,1.8,17.5,4,17.5s4-7.84,4-17.5-3.81-7.5-6-7.5S357.72,9.83,357.72,19.5Z"/><path d="M338.44,19c0,6.63,4.16,6,10.52,6s12.52.63,12.52-6a11.53,11.53,0,1,0-23,0Z"/><path d="M324.46,18.5c0-10.22,5.31-12.5,10.63-12.5s8.64,2.28,8.64,12.5S339.41,37,334.09,37,324.46,28.72,324.46,18.5Z"/><path d="M328.39,19c0-6.63-2.25-12-5-12s-5,5.37-5,12,1.25,6,4,6S328.39,25.63,328.39,19Z"/><path d="M322.11,16.5c0-4.69-2.72-8.5-6.08-8.5S310,11.81,310,16.5,311.68,19,315,19,322.11,21.19,322.11,16.5Z"/><path d="M301,16.5c0,6.35,2.16,11.5,4.82,11.5s4.81-5.15,4.81-11.5-1.15-5.5-3.81-5.5S301,10.15,301,16.5Z"/><ellipse class="cls-5" cx="191" cy="212.5" rx="178.5" ry="25"/><path class="cls-6" d="M369.5,212V122h0c-12,32.5-328,33.5-357,0h0v91"/><path class="cls-7" d="M369.5,212.5c0,13.81-79.92,25-178.5,25s-178.5-11.19-178.5-25"/><line class="cls-8" x1="369.5" y1="209.5" x2="362.5" y2="213.5"/><line class="cls-9" x1="285" y1="249.5" x2="269" y2="249.5"/><path class="cls-10" d="M269.09,131c13-33,45-21,57-11s47,33-57,132h-.59c-104-99-69-122-57-132s44-22,57,11Z"/><path class="cls-11" d="M276.09,131c13-33,45-21,57-11s66,33-38,132H275.5c-104-99-69-122-57-132s44-22,57,11Z"/><line class="cls-12" x1="294.5" y1="250.5" x2="279.5" y2="250.5"/><line class="cls-13" x1="323" y1="112" x2="306" y2="112"/><line class="cls-13" x1="265" y1="112" x2="248" y2="112"/><path class="cls-14" d="M295.09,131c13-33,45-21,57-11s47,33-57,132h-.59c-104-99-69-122-57-132s44-22,57,11Z"/><polyline class="cls-15" points="357 182.5 328 182.5 304 211.5 281 148.5 268 184.5 232 184.5"/><line class="cls-13" x1="252.5" y1="214.5" x2="219.5" y2="164.5"/><path class="cls-16" d="M121.25,154.75c-13.64,0-14.63,30.25-14.63,30.25s2.57-30.25-15.62-30.25c18.19,0,15.62-30.25,15.62-30.25S107.61,154.75,121.25,154.75Z"/><path class="cls-17" d="M367.5,208.5s3.38-2.76,3.94-3.87l.06-.13v6S365.86,208.6,367.5,208.5Z"/><path class="cls-17" d="M53.5,208.5a33.71,33.71,0,0,1-2.94-3.87l-.06-.13v6S57.5,214.5,53.5,208.5Z"/><path d="M265.33,22.13a23.76,23.76,0,0,0-8.24-9.74A70.43,70.43,0,0,0,245.8,6.16a21.65,21.65,0,0,0-4.68-1.8c-4.09-.89-8.39.66-11.74,3.17-2,1.5-3.81,3.5-4.21,6Z"/><ellipse cx="259.87" cy="10.92" rx="8.62" ry="7.05" transform="translate(107.39 221.64) rotate(-56.52)"/><ellipse cx="213" cy="15.5" rx="19" ry="9.5"/><ellipse cx="274.5" cy="13.5" rx="9.5" ry="8.5"/><path d="M283,15.5c0,5.25,1.7,9.5,7.5,9.5S301,20.75,301,15.5,296.3,6,290.5,6,283,10.25,283,15.5Z"/><circle class="cls-18" cx="170.5" cy="351.5" r="36.5"/><circle class="cls-18" cx="303.5" cy="351.5" r="36.5"/><line class="cls-19" x1="100" y1="258" x2="230" y2="258"/><line class="cls-19" x1="272" y1="258" x2="342" y2="258"/><line class="cls-19" x1="233" y1="275" x2="283" y2="275"/><line class="cls-19" x1="303" y1="268" x2="333" y2="268"/><line class="cls-19" x1="243" y1="258" x2="258" y2="258"/><line class="cls-19" x1="107" y1="273" x2="208" y2="273"/><line class="cls-19" x1="215" y1="552" x2="232" y2="569"/><line class="cls-19" x1="232" y1="552" x2="215" y2="569"/><path class="cls-20" d="M242,370.62c.87,10.52,5.54,18.88,13,26.2,4.94,4.88,9.52,11.16,6.92,18.59-1.93,5.52-9.63,5.87-14.2,8.28-1.7.91-.19,3.5,1.52,2.59,4.32-2.28,10.05-2.61,13.5-6.37s3.3-10.35,1.93-14.84c-1.62-5.26-6.1-8.74-9.75-12.55a35.35,35.35,0,0,1-9.87-21.9c-.15-1.91-3.16-1.93-3,0Z"/><ellipse cx="368.5" cy="40" rx="6.5" ry="16"/><ellipse cx="369" cy="67" rx="7" ry="22"/><ellipse cx="370" cy="86" rx="7" ry="18"/><ellipse cx="366.5" cy="103" rx="8.5" ry="12"/><path class="cls-21" d="M420.29,91.05c24.14,11.09,27.26,39.77,24.8,63.16-.21,1.91,2.8,1.9,3,0,2.57-24.39-1.23-54.24-26.28-65.75-1.74-.8-3.27,1.78-1.52,2.59Z"/><path class="cls-21" d="M435,61.43C473.78,78.87,479,125.54,475,162.81c-.21,1.92,2.8,1.91,3,0,4.11-38.25-1.73-86.12-41.42-104-1.75-.78-3.27,1.8-1.51,2.59Z"/><path class="cls-21" d="M451.69,26.37c24.2,10.76,41.66,32.43,51,56.86,11.08,29.07,10.89,61,7.57,91.45-.21,1.92,2.8,1.9,3,0,3.45-31.7,3.48-65.05-8.77-95-9.8-24-27.25-45.21-51.24-55.87-1.75-.78-3.28,1.8-1.52,2.59Z"/><path class="cls-19" d="M117.19,320.77c5-14.4,31.7-21.63,33.44-22.12,6.68-1.88,12.75-3.15,25.53-1.63,13.11,1.55,20.73,4.23,31,11.19,2.8,1.88,7.76,8.86,7.76,8.86"/><path class="cls-19" d="M348.32,323.41c-4.44-14.52-30.05-23.69-31.77-24s-12.31-3.06-24.63-1.27S272.63,304,262,315"/></g></g></svg>